# MagicaVoxel @ ephtracy

# material
mtllib left_arm.mtl
usemtl palette

# normals
vn -1 0 0
vn 1 0 0
vn 0 0 1
vn 0 0 -1
vn 0 -1 0
vn 0 1 0

# texcoords
vt 0.0332031 0.5
vt 0.986328 0.5

# verts
v -0.75 0.125 0.25
v -0.75 0.125 -0.375
v -0.75 0.25 0.375
v -0.75 0.25 0.25
v -0.75 0.25 -0.375
v -0.75 0.25 -0.5
v -0.75 0.5 0.375
v -0.75 0.5 0.25
v -0.75 0.5 -0.375
v -0.75 0.5 -0.5
v -0.75 0.625 0.25
v -0.75 0.625 -0.375
v -0.5 0 0.5
v -0.5 0 -0
v -0.5 0.125 0.25
v -0.5 0.125 -0
v -0.5 0.125 -0.375
v -0.5 0.125 -0.5
v -0.5 0.25 0.375
v -0.5 0.25 0.25
v -0.5 0.25 -0.375
v -0.5 0.25 -0.5
v -0.5 0.5 0.5
v -0.5 0.5 0.375
v -0.5 0.5 0.25
v -0.5 0.5 -0.375
v -0.5 0.5 -0.5
v -0.5 0.625 0.375
v -0.5 0.625 0.25
v -0.5 0.625 -0.375
v -0.5 0.625 -0.5
v -0.25 0.125 -0.5
v -0.25 0.125 -0.625
v -0.25 0.625 0.375
v -0.25 0.625 -0.5
v -0.25 0.625 -0.625
v -0.25 0.75 0.375
v -0.25 0.75 -0.5
v -0.125 0 -0
v -0.125 0 -0.375
v -0.125 0.125 -0
v -0.125 0.125 -0.375
v 0.375 0 0.5
v 0.375 0 -0.375
v 0.375 0.125 0.375
v 0.375 0.125 -0.375
v 0.375 0.5 0.5
v 0.375 0.5 0.375
v 0.625 0.625 0.375
v 0.625 0.625 -0.5
v 0.625 0.75 0.375
v 0.625 0.75 -0.5
v 0.75 0.125 0.375
v 0.75 0.125 -0.625
v 0.75 0.625 0.375
v 0.75 0.625 -0.625
v -0.5 0 0.5
v -0.5 0.5 0.5
v 0.375 0 0.5
v 0.375 0.5 0.5
v -0.75 0.25 0.375
v -0.75 0.5 0.375
v -0.5 0.25 0.375
v -0.5 0.5 0.375
v -0.5 0.625 0.375
v -0.25 0.625 0.375
v -0.25 0.75 0.375
v 0.375 0.125 0.375
v 0.375 0.5 0.375
v 0.625 0.625 0.375
v 0.625 0.75 0.375
v 0.75 0.125 0.375
v 0.75 0.625 0.375
v -0.75 0.125 0.25
v -0.75 0.25 0.25
v -0.75 0.5 0.25
v -0.75 0.625 0.25
v -0.5 0.125 0.25
v -0.5 0.25 0.25
v -0.5 0.5 0.25
v -0.5 0.625 0.25
v -0.5 0 -0
v -0.5 0.125 -0
v -0.125 0 -0
v -0.125 0.125 -0
v -0.75 0.125 -0.375
v -0.75 0.25 -0.375
v -0.75 0.5 -0.375
v -0.75 0.625 -0.375
v -0.5 0.125 -0.375
v -0.5 0.25 -0.375
v -0.5 0.5 -0.375
v -0.5 0.625 -0.375
v -0.125 0 -0.375
v -0.125 0.125 -0.375
v 0.375 0 -0.375
v 0.375 0.125 -0.375
v -0.75 0.25 -0.5
v -0.75 0.5 -0.5
v -0.5 0.125 -0.5
v -0.5 0.25 -0.5
v -0.5 0.5 -0.5
v -0.5 0.625 -0.5
v -0.25 0.125 -0.5
v -0.25 0.625 -0.5
v -0.25 0.75 -0.5
v 0.625 0.625 -0.5
v 0.625 0.75 -0.5
v -0.25 0.125 -0.625
v -0.25 0.625 -0.625
v 0.75 0.125 -0.625
v 0.75 0.625 -0.625
v -0.5 0 0.5
v 0.375 0 0.5
v -0.5 0 -0
v -0.125 0 -0
v -0.125 0 -0.375
v 0.375 0 -0.375
v 0.375 0.125 0.375
v 0.75 0.125 0.375
v -0.75 0.125 0.25
v -0.5 0.125 0.25
v -0.5 0.125 -0
v -0.125 0.125 -0
v -0.75 0.125 -0.375
v -0.5 0.125 -0.375
v -0.125 0.125 -0.375
v 0.375 0.125 -0.375
v -0.5 0.125 -0.5
v -0.25 0.125 -0.5
v -0.25 0.125 -0.625
v 0.75 0.125 -0.625
v -0.75 0.25 0.375
v -0.5 0.25 0.375
v -0.75 0.25 0.25
v -0.5 0.25 0.25
v -0.75 0.25 -0.375
v -0.5 0.25 -0.375
v -0.75 0.25 -0.5
v -0.5 0.25 -0.5
v -0.5 0.5 0.5
v 0.375 0.5 0.5
v -0.75 0.5 0.375
v -0.5 0.5 0.375
v 0.375 0.5 0.375
v -0.75 0.5 0.25
v -0.5 0.5 0.25
v -0.75 0.5 -0.375
v -0.5 0.5 -0.375
v -0.75 0.5 -0.5
v -0.5 0.5 -0.5
v -0.5 0.625 0.375
v -0.25 0.625 0.375
v 0.625 0.625 0.375
v 0.75 0.625 0.375
v -0.75 0.625 0.25
v -0.5 0.625 0.25
v -0.75 0.625 -0.375
v -0.5 0.625 -0.375
v -0.5 0.625 -0.5
v -0.25 0.625 -0.5
v 0.625 0.625 -0.5
v -0.25 0.625 -0.625
v 0.75 0.625 -0.625
v -0.25 0.75 0.375
v 0.625 0.75 0.375
v -0.25 0.75 -0.5
v 0.625 0.75 -0.5

# faces
f 4/2/1 2/2/1 1/2/1
f 5/2/1 2/2/1 4/2/1
f 7/2/1 4/2/1 3/2/1
f 8/1/1 5/1/1 4/1/1
f 8/2/1 4/2/1 7/2/1
f 9/2/1 6/2/1 5/2/1
f 9/1/1 5/1/1 8/1/1
f 10/2/1 6/2/1 9/2/1
f 11/2/1 9/2/1 8/2/1
f 12/2/1 9/2/1 11/2/1
f 15/1/1 14/1/1 13/1/1
f 16/1/1 14/1/1 15/1/1
f 19/1/1 15/1/1 13/1/1
f 20/1/1 15/1/1 19/1/1
f 21/1/1 18/1/1 17/1/1
f 22/1/1 18/1/1 21/1/1
f 23/1/1 19/1/1 13/1/1
f 24/1/1 19/1/1 23/1/1
f 28/1/1 25/1/1 24/1/1
f 29/1/1 25/1/1 28/1/1
f 30/1/1 27/1/1 26/1/1
f 31/1/1 27/1/1 30/1/1
f 35/1/1 33/1/1 32/1/1
f 36/1/1 33/1/1 35/1/1
f 37/1/1 35/1/1 34/1/1
f 38/1/1 35/1/1 37/1/1
f 41/1/1 40/1/1 39/1/1
f 42/1/1 40/1/1 41/1/1
f 43/1/2 44/1/2 45/1/2
f 45/1/2 44/1/2 46/1/2
f 43/1/2 45/1/2 47/1/2
f 47/1/2 45/1/2 48/1/2
f 49/1/2 50/1/2 51/1/2
f 51/1/2 50/1/2 52/1/2
f 53/1/2 54/1/2 55/1/2
f 55/1/2 54/1/2 56/1/2
f 59/1/3 58/1/3 57/1/3
f 60/1/3 58/1/3 59/1/3
f 63/2/3 62/2/3 61/2/3
f 64/2/3 62/2/3 63/2/3
f 66/1/3 65/1/3 64/1/3
f 69/1/3 66/1/3 64/1/3
f 69/1/3 67/1/3 66/1/3
f 70/1/3 67/1/3 69/1/3
f 70/1/3 69/1/3 68/1/3
f 71/1/3 67/1/3 70/1/3
f 72/1/3 70/1/3 68/1/3
f 73/1/3 70/1/3 72/1/3
f 78/2/3 75/2/3 74/2/3
f 79/2/3 75/2/3 78/2/3
f 80/2/3 77/2/3 76/2/3
f 81/2/3 77/2/3 80/2/3
f 82/1/4 83/1/4 84/1/4
f 84/1/4 83/1/4 85/1/4
f 86/2/4 87/2/4 90/2/4
f 90/2/4 87/2/4 91/2/4
f 88/2/4 89/2/4 92/2/4
f 92/2/4 89/2/4 93/2/4
f 94/1/4 95/1/4 96/1/4
f 96/1/4 95/1/4 97/1/4
f 98/2/4 99/2/4 101/2/4
f 101/2/4 99/2/4 102/2/4
f 100/1/4 101/1/4 104/1/4
f 102/1/4 103/1/4 104/1/4
f 101/1/4 102/1/4 104/1/4
f 104/1/4 103/1/4 105/1/4
f 105/1/4 106/1/4 107/1/4
f 107/1/4 106/1/4 108/1/4
f 109/1/4 110/1/4 111/1/4
f 111/1/4 110/1/4 112/1/4
f 115/1/5 114/1/5 113/1/5
f 116/1/5 114/1/5 115/1/5
f 117/1/5 114/1/5 116/1/5
f 118/1/5 114/1/5 117/1/5
f 123/2/5 122/2/5 121/2/5
f 125/2/5 123/2/5 121/2/5
f 126/1/5 124/1/5 123/1/5
f 126/2/5 123/2/5 125/2/5
f 127/1/5 124/1/5 126/1/5
f 128/1/5 120/1/5 119/1/5
f 129/1/5 127/1/5 126/1/5
f 129/1/5 128/1/5 127/1/5
f 130/1/5 128/1/5 129/1/5
f 131/1/5 128/1/5 130/1/5
f 132/1/5 120/1/5 128/1/5
f 132/1/5 128/1/5 131/1/5
f 135/2/5 134/2/5 133/2/5
f 136/2/5 134/2/5 135/2/5
f 139/2/5 138/2/5 137/2/5
f 140/2/5 138/2/5 139/2/5
f 141/1/6 142/1/6 144/1/6
f 144/1/6 142/1/6 145/1/6
f 143/2/6 144/2/6 146/2/6
f 146/2/6 144/2/6 147/2/6
f 148/2/6 149/2/6 150/2/6
f 150/2/6 149/2/6 151/2/6
f 152/1/6 153/1/6 157/1/6
f 156/2/6 157/2/6 158/2/6
f 157/1/6 153/1/6 159/1/6
f 158/2/6 157/2/6 159/2/6
f 159/1/6 153/1/6 160/1/6
f 160/1/6 153/1/6 161/1/6
f 154/1/6 155/1/6 162/1/6
f 161/1/6 162/1/6 163/1/6
f 162/1/6 155/1/6 164/1/6
f 163/1/6 162/1/6 164/1/6
f 165/1/6 166/1/6 167/1/6
f 167/1/6 166/1/6 168/1/6
