# MagicaVoxel @ ephtracy

# material
mtllib block_bricks.mtl
usemtl palette

# normals
vn -1 0 0
vn 1 0 0
vn 0 0 1
vn 0 0 -1
vn 0 -1 0
vn 0 1 0

# texcoords
vt 0.974609 0.5
vt 0.982422 0.5
vt 0.986328 0.5
vt 0.990234 0.5
vt 0.994141 0.5

# verts
v -0.5 0 0.5
v -0.5 0 -0.5
v -0.5 0.0625 0.4375
v -0.5 0.0625 0.1875
v -0.5 0.0625 0.125
v -0.5 0.0625 -0.4375
v -0.5 0.3125 0.4375
v -0.5 0.3125 0.1875
v -0.5 0.3125 0.125
v -0.5 0.3125 -0.4375
v -0.5 0.375 0.4375
v -0.5 0.375 -0.125
v -0.5 0.375 -0.1875
v -0.5 0.375 -0.4375
v -0.5 0.625 0.4375
v -0.5 0.625 -0.125
v -0.5 0.625 -0.1875
v -0.5 0.625 -0.4375
v -0.5 0.6875 0.4375
v -0.5 0.6875 0.1875
v -0.5 0.6875 0.125
v -0.5 0.6875 -0.4375
v -0.5 0.9375 0.4375
v -0.5 0.9375 0.1875
v -0.5 0.9375 0.125
v -0.5 0.9375 -0.4375
v -0.5 1 0.5
v -0.5 1 -0.5
v 0.5 0 0.5
v 0.5 0 -0.5
v 0.5 0.0625 0.4375
v 0.5 0.0625 -0.125
v 0.5 0.0625 -0.1875
v 0.5 0.0625 -0.4375
v 0.5 0.3125 0.4375
v 0.5 0.3125 -0.125
v 0.5 0.3125 -0.1875
v 0.5 0.3125 -0.4375
v 0.5 0.375 0.4375
v 0.5 0.375 0.1875
v 0.5 0.375 0.125
v 0.5 0.375 -0.4375
v 0.5 0.625 0.4375
v 0.5 0.625 0.1875
v 0.5 0.625 0.125
v 0.5 0.625 -0.4375
v 0.5 0.6875 0.4375
v 0.5 0.6875 -0.125
v 0.5 0.6875 -0.1875
v 0.5 0.6875 -0.4375
v 0.5 0.9375 0.4375
v 0.5 0.9375 -0.125
v 0.5 0.9375 -0.1875
v 0.5 0.9375 -0.4375
v 0.5 1 0.5
v 0.5 1 -0.5
v -0.5 0 0.5
v -0.5 1 0.5
v -0.4375 0.0625 0.5
v -0.4375 0.3125 0.5
v -0.4375 0.375 0.5
v -0.4375 0.625 0.5
v -0.4375 0.6875 0.5
v -0.4375 0.9375 0.5
v -0.1875 0.375 0.5
v -0.1875 0.625 0.5
v -0.125 0.375 0.5
v -0.125 0.625 0.5
v 0.125 0.0625 0.5
v 0.125 0.3125 0.5
v 0.125 0.6875 0.5
v 0.125 0.9375 0.5
v 0.1875 0.0625 0.5
v 0.1875 0.3125 0.5
v 0.1875 0.6875 0.5
v 0.1875 0.9375 0.5
v 0.4375 0.0625 0.5
v 0.4375 0.3125 0.5
v 0.4375 0.375 0.5
v 0.4375 0.625 0.5
v 0.4375 0.6875 0.5
v 0.4375 0.9375 0.5
v 0.5 0 0.5
v 0.5 1 0.5
v -0.5 0 -0.5
v -0.5 1 -0.5
v -0.4375 0.0625 -0.5
v -0.4375 0.3125 -0.5
v -0.4375 0.375 -0.5
v -0.4375 0.625 -0.5
v -0.4375 0.6875 -0.5
v -0.4375 0.9375 -0.5
v -0.1875 0.0625 -0.5
v -0.1875 0.3125 -0.5
v -0.1875 0.6875 -0.5
v -0.1875 0.9375 -0.5
v -0.125 0.0625 -0.5
v -0.125 0.3125 -0.5
v -0.125 0.6875 -0.5
v -0.125 0.9375 -0.5
v 0.125 0.375 -0.5
v 0.125 0.625 -0.5
v 0.1875 0.375 -0.5
v 0.1875 0.625 -0.5
v 0.4375 0.0625 -0.5
v 0.4375 0.3125 -0.5
v 0.4375 0.375 -0.5
v 0.4375 0.625 -0.5
v 0.4375 0.6875 -0.5
v 0.4375 0.9375 -0.5
v 0.5 0 -0.5
v 0.5 1 -0.5
v -0.5 0 0.5
v 0.5 0 0.5
v -0.5 0 -0.5
v 0.5 0 -0.5
v -0.5 1 0.5
v 0.5 1 0.5
v -0.5 1 -0.5
v 0.5 1 -0.5

# faces
f 3/4/1 2/4/1 1/4/1
f 4/4/1 2/4/1 3/4/1
f 5/4/1 2/4/1 4/4/1
f 6/4/1 2/4/1 5/4/1
f 7/4/1 3/4/1 1/4/1
f 7/3/1 4/3/1 3/3/1
f 8/4/1 5/4/1 4/4/1
f 8/3/1 4/3/1 7/3/1
f 9/1/1 6/1/1 5/1/1
f 9/4/1 5/4/1 8/4/1
f 10/4/1 2/4/1 6/4/1
f 10/1/1 6/1/1 9/1/1
f 11/4/1 9/4/1 8/4/1
f 11/4/1 8/4/1 7/4/1
f 11/4/1 10/4/1 9/4/1
f 11/4/1 7/4/1 1/4/1
f 12/4/1 10/4/1 11/4/1
f 13/4/1 10/4/1 12/4/1
f 14/4/1 2/4/1 10/4/1
f 14/4/1 10/4/1 13/4/1
f 15/4/1 11/4/1 1/4/1
f 15/5/1 12/5/1 11/5/1
f 16/4/1 13/4/1 12/4/1
f 16/5/1 12/5/1 15/5/1
f 17/2/1 14/2/1 13/2/1
f 17/4/1 13/4/1 16/4/1
f 18/4/1 2/4/1 14/4/1
f 18/2/1 14/2/1 17/2/1
f 19/4/1 15/4/1 1/4/1
f 19/4/1 17/4/1 16/4/1
f 19/4/1 18/4/1 17/4/1
f 19/4/1 16/4/1 15/4/1
f 20/4/1 18/4/1 19/4/1
f 21/4/1 18/4/1 20/4/1
f 22/4/1 2/4/1 18/4/1
f 22/4/1 18/4/1 21/4/1
f 23/4/1 19/4/1 1/4/1
f 23/1/1 20/1/1 19/1/1
f 24/4/1 21/4/1 20/4/1
f 24/1/1 20/1/1 23/1/1
f 25/3/1 22/3/1 21/3/1
f 25/4/1 21/4/1 24/4/1
f 26/4/1 2/4/1 22/4/1
f 26/3/1 22/3/1 25/3/1
f 27/4/1 23/4/1 1/4/1
f 27/4/1 25/4/1 24/4/1
f 27/4/1 26/4/1 25/4/1
f 27/4/1 24/4/1 23/4/1
f 28/4/1 2/4/1 26/4/1
f 28/4/1 26/4/1 27/4/1
f 29/4/2 30/4/2 31/4/2
f 31/4/2 30/4/2 32/4/2
f 32/4/2 30/4/2 33/4/2
f 33/4/2 30/4/2 34/4/2
f 29/4/2 31/4/2 35/4/2
f 31/1/2 32/1/2 35/1/2
f 32/4/2 33/4/2 36/4/2
f 35/1/2 32/1/2 36/1/2
f 33/3/2 34/3/2 37/3/2
f 36/4/2 33/4/2 37/4/2
f 34/4/2 30/4/2 38/4/2
f 37/3/2 34/3/2 38/3/2
f 36/4/2 37/4/2 39/4/2
f 35/4/2 36/4/2 39/4/2
f 37/4/2 38/4/2 39/4/2
f 29/4/2 35/4/2 39/4/2
f 39/4/2 38/4/2 40/4/2
f 40/4/2 38/4/2 41/4/2
f 38/4/2 30/4/2 42/4/2
f 41/4/2 38/4/2 42/4/2
f 29/4/2 39/4/2 43/4/2
f 39/2/2 40/2/2 43/2/2
f 40/4/2 41/4/2 44/4/2
f 43/2/2 40/2/2 44/2/2
f 41/1/2 42/1/2 45/1/2
f 44/4/2 41/4/2 45/4/2
f 42/4/2 30/4/2 46/4/2
f 45/1/2 42/1/2 46/1/2
f 29/4/2 43/4/2 47/4/2
f 44/4/2 45/4/2 47/4/2
f 45/4/2 46/4/2 47/4/2
f 43/4/2 44/4/2 47/4/2
f 47/4/2 46/4/2 48/4/2
f 48/4/2 46/4/2 49/4/2
f 46/4/2 30/4/2 50/4/2
f 49/4/2 46/4/2 50/4/2
f 29/4/2 47/4/2 51/4/2
f 47/3/2 48/3/2 51/3/2
f 48/4/2 49/4/2 52/4/2
f 51/3/2 48/3/2 52/3/2
f 49/5/2 50/5/2 53/5/2
f 52/4/2 49/4/2 53/4/2
f 50/4/2 30/4/2 54/4/2
f 53/5/2 50/5/2 54/5/2
f 29/4/2 51/4/2 55/4/2
f 52/4/2 53/4/2 55/4/2
f 53/4/2 54/4/2 55/4/2
f 51/4/2 52/4/2 55/4/2
f 54/4/2 30/4/2 56/4/2
f 55/4/2 54/4/2 56/4/2
f 59/4/3 58/4/3 57/4/3
f 60/4/3 58/4/3 59/4/3
f 61/4/3 58/4/3 60/4/3
f 62/4/3 58/4/3 61/4/3
f 63/4/3 58/4/3 62/4/3
f 64/4/3 58/4/3 63/4/3
f 65/4/3 61/4/3 60/4/3
f 65/5/3 62/5/3 61/5/3
f 66/4/3 63/4/3 62/4/3
f 66/5/3 62/5/3 65/5/3
f 67/4/3 65/4/3 60/4/3
f 67/4/3 66/4/3 65/4/3
f 68/4/3 63/4/3 66/4/3
f 68/4/3 66/4/3 67/4/3
f 69/4/3 59/4/3 57/4/3
f 69/3/3 60/3/3 59/3/3
f 70/4/3 67/4/3 60/4/3
f 70/3/3 60/3/3 69/3/3
f 71/4/3 63/4/3 68/4/3
f 71/1/3 64/1/3 63/1/3
f 72/4/3 58/4/3 64/4/3
f 72/1/3 64/1/3 71/1/3
f 73/4/3 70/4/3 69/4/3
f 73/4/3 69/4/3 57/4/3
f 74/4/3 67/4/3 70/4/3
f 74/4/3 70/4/3 73/4/3
f 75/4/3 71/4/3 68/4/3
f 75/4/3 72/4/3 71/4/3
f 76/4/3 58/4/3 72/4/3
f 76/4/3 72/4/3 75/4/3
f 77/4/3 73/4/3 57/4/3
f 77/1/3 74/1/3 73/1/3
f 78/4/3 67/4/3 74/4/3
f 78/1/3 74/1/3 77/1/3
f 79/2/3 68/2/3 67/2/3
f 79/4/3 67/4/3 78/4/3
f 80/4/3 75/4/3 68/4/3
f 80/2/3 68/2/3 79/2/3
f 81/3/3 76/3/3 75/3/3
f 81/4/3 75/4/3 80/4/3
f 82/4/3 58/4/3 76/4/3
f 82/3/3 76/3/3 81/3/3
f 83/4/3 81/4/3 80/4/3
f 83/4/3 78/4/3 77/4/3
f 83/4/3 82/4/3 81/4/3
f 83/4/3 80/4/3 79/4/3
f 83/4/3 79/4/3 78/4/3
f 83/4/3 77/4/3 57/4/3
f 84/4/3 58/4/3 82/4/3
f 84/4/3 82/4/3 83/4/3
f 85/4/4 86/4/4 87/4/4
f 87/4/4 86/4/4 88/4/4
f 88/4/4 86/4/4 89/4/4
f 89/4/4 86/4/4 90/4/4
f 90/4/4 86/4/4 91/4/4
f 91/4/4 86/4/4 92/4/4
f 85/4/4 87/4/4 93/4/4
f 87/1/4 88/1/4 93/1/4
f 88/4/4 89/4/4 94/4/4
f 93/1/4 88/1/4 94/1/4
f 91/3/4 92/3/4 95/3/4
f 90/4/4 91/4/4 95/4/4
f 92/4/4 86/4/4 96/4/4
f 95/3/4 92/3/4 96/3/4
f 85/4/4 93/4/4 97/4/4
f 93/4/4 94/4/4 97/4/4
f 94/4/4 89/4/4 98/4/4
f 97/4/4 94/4/4 98/4/4
f 90/4/4 95/4/4 99/4/4
f 95/4/4 96/4/4 99/4/4
f 96/4/4 86/4/4 100/4/4
f 99/4/4 96/4/4 100/4/4
f 98/4/4 89/4/4 101/4/4
f 89/2/4 90/2/4 101/2/4
f 90/4/4 99/4/4 102/4/4
f 101/2/4 90/2/4 102/2/4
f 98/4/4 101/4/4 103/4/4
f 101/4/4 102/4/4 103/4/4
f 102/4/4 99/4/4 104/4/4
f 103/4/4 102/4/4 104/4/4
f 85/4/4 97/4/4 105/4/4
f 97/3/4 98/3/4 105/3/4
f 98/4/4 103/4/4 106/4/4
f 105/3/4 98/3/4 106/3/4
f 103/1/4 104/1/4 107/1/4
f 106/4/4 103/4/4 107/4/4
f 104/4/4 99/4/4 108/4/4
f 107/1/4 104/1/4 108/1/4
f 99/5/4 100/5/4 109/5/4
f 108/4/4 99/4/4 109/4/4
f 100/4/4 86/4/4 110/4/4
f 109/5/4 100/5/4 110/5/4
f 108/4/4 109/4/4 111/4/4
f 106/4/4 107/4/4 111/4/4
f 109/4/4 110/4/4 111/4/4
f 105/4/4 106/4/4 111/4/4
f 107/4/4 108/4/4 111/4/4
f 85/4/4 105/4/4 111/4/4
f 110/4/4 86/4/4 112/4/4
f 111/4/4 110/4/4 112/4/4
f 115/4/5 114/4/5 113/4/5
f 116/4/5 114/4/5 115/4/5
f 117/4/6 118/4/6 119/4/6
f 119/4/6 118/4/6 120/4/6
