# MagicaVoxel @ ephtracy

# material
mtllib left_foot.mtl
usemtl palette

# normals
vn -1 0 0
vn 1 0 0
vn 0 0 1
vn 0 0 -1
vn 0 -1 0
vn 0 1 0

# texcoords
vt 0.0332031 0.5
vt 0.537109 0.5
vt 0.701172 0.5

# verts
v -0.375 0 0.625
v -0.375 0 -1
v -0.375 0.125 0.625
v -0.375 0.125 0.375
v -0.375 0.125 0.25
v -0.375 0.125 0.125
v -0.375 0.125 -0
v -0.375 0.125 -0.625
v -0.375 0.25 -0.625
v -0.375 0.25 -0.875
v -0.375 0.375 -0.875
v -0.375 0.375 -1
v -0.375 0.5 0.625
v -0.375 0.5 0.375
v -0.375 0.5 0.25
v -0.375 0.5 0.125
v -0.375 0.5 -0
v -0.375 0.5 -1
v -0.25 0 0.875
v -0.25 0 0.625
v -0.25 0.125 0.875
v -0.25 0.125 0.625
v -0.25 0.5 0.875
v -0.25 0.5 0.625
v -0.25 0.5 0.375
v -0.25 0.5 0.25
v -0.25 0.5 0.125
v -0.25 0.5 -0
v -0.25 0.5 -1
v -0.25 0.625 0.625
v -0.25 0.625 0.375
v -0.25 0.625 0.25
v -0.25 0.625 0.125
v -0.25 0.625 -0
v -0.25 0.625 -1
v -0.125 0 1
v -0.125 0 0.875
v -0.125 0.125 1
v -0.125 0.125 0.875
v -0.125 0.5 1
v -0.125 0.5 0.875
v -0.125 0.5 0.625
v -0.125 0.625 0.875
v -0.125 0.625 0.625
v -0.125 0.625 -0.25
v -0.125 0.625 -0.75
v -0.125 0.875 -0.25
v -0.125 0.875 -0.75
v 0 0.625 -0.125
v 0 0.625 -0.25
v 0 0.625 -0.75
v 0 0.625 -0.875
v 0 0.875 -0.125
v 0 0.875 -0.25
v 0 0.875 -0.75
v 0 0.875 -0.875
v 0.5 0.625 -0.125
v 0.5 0.625 -0.25
v 0.5 0.625 -0.75
v 0.5 0.625 -0.875
v 0.5 0.875 -0.125
v 0.5 0.875 -0.25
v 0.5 0.875 -0.75
v 0.5 0.875 -0.875
v 0.625 0 1
v 0.625 0 -1
v 0.625 0.125 1
v 0.625 0.125 0.375
v 0.625 0.125 0.25
v 0.625 0.125 0.125
v 0.625 0.125 -0
v 0.625 0.125 -0.875
v 0.625 0.375 -0.875
v 0.625 0.375 -1
v 0.625 0.5 1
v 0.625 0.5 0.875
v 0.625 0.625 0.875
v 0.625 0.625 0.375
v 0.625 0.625 0.25
v 0.625 0.625 0.125
v 0.625 0.625 -0
v 0.625 0.625 -0.25
v 0.625 0.625 -0.75
v 0.625 0.625 -1
v 0.625 0.875 -0.25
v 0.625 0.875 -0.75
v -0.125 0 1
v -0.125 0.125 1
v -0.125 0.5 1
v 0.125 0.125 1
v 0.125 0.5 1
v 0.25 0.125 1
v 0.25 0.5 1
v 0.375 0.125 1
v 0.375 0.5 1
v 0.5 0.125 1
v 0.5 0.5 1
v 0.625 0 1
v 0.625 0.125 1
v 0.625 0.5 1
v -0.25 0 0.875
v -0.25 0.125 0.875
v -0.25 0.5 0.875
v -0.125 0 0.875
v -0.125 0.125 0.875
v -0.125 0.5 0.875
v -0.125 0.625 0.875
v 0.125 0.5 0.875
v 0.125 0.625 0.875
v 0.25 0.5 0.875
v 0.25 0.625 0.875
v 0.375 0.5 0.875
v 0.375 0.625 0.875
v 0.5 0.5 0.875
v 0.5 0.625 0.875
v 0.625 0.5 0.875
v 0.625 0.625 0.875
v -0.375 0 0.625
v -0.375 0.125 0.625
v -0.375 0.5 0.625
v -0.25 0 0.625
v -0.25 0.125 0.625
v -0.25 0.5 0.625
v -0.25 0.625 0.625
v -0.125 0.5 0.625
v -0.125 0.625 0.625
v 0 0.625 -0.125
v 0 0.875 -0.125
v 0.5 0.625 -0.125
v 0.5 0.875 -0.125
v -0.125 0.625 -0.25
v -0.125 0.875 -0.25
v 0 0.625 -0.25
v 0 0.875 -0.25
v 0.5 0.625 -0.25
v 0.5 0.875 -0.25
v 0.625 0.625 -0.25
v 0.625 0.875 -0.25
v -0.125 0.625 -0.75
v -0.125 0.875 -0.75
v 0 0.625 -0.75
v 0 0.875 -0.75
v 0.5 0.625 -0.75
v 0.5 0.875 -0.75
v 0.625 0.625 -0.75
v 0.625 0.875 -0.75
v 0 0.625 -0.875
v 0 0.875 -0.875
v 0.5 0.625 -0.875
v 0.5 0.875 -0.875
v -0.375 0 -1
v -0.375 0.375 -1
v -0.375 0.5 -1
v -0.25 0.5 -1
v -0.25 0.625 -1
v 0.625 0 -1
v 0.625 0.375 -1
v 0.625 0.625 -1
v -0.125 0 1
v 0.625 0 1
v -0.25 0 0.875
v -0.125 0 0.875
v -0.375 0 0.625
v -0.25 0 0.625
v -0.375 0 -1
v 0.625 0 -1
v -0.125 0.5 1
v 0.125 0.5 1
v 0.25 0.5 1
v 0.375 0.5 1
v 0.5 0.5 1
v 0.625 0.5 1
v -0.25 0.5 0.875
v -0.125 0.5 0.875
v 0.125 0.5 0.875
v 0.25 0.5 0.875
v 0.375 0.5 0.875
v 0.5 0.5 0.875
v 0.625 0.5 0.875
v -0.375 0.5 0.625
v -0.25 0.5 0.625
v -0.125 0.5 0.625
v -0.375 0.5 0.375
v -0.25 0.5 0.375
v -0.375 0.5 0.25
v -0.25 0.5 0.25
v -0.375 0.5 0.125
v -0.25 0.5 0.125
v -0.375 0.5 -0
v -0.25 0.5 -0
v -0.375 0.5 -1
v -0.25 0.5 -1
v -0.125 0.625 0.875
v 0.125 0.625 0.875
v 0.25 0.625 0.875
v 0.375 0.625 0.875
v 0.5 0.625 0.875
v 0.625 0.625 0.875
v -0.25 0.625 0.625
v -0.125 0.625 0.625
v -0.25 0.625 0.375
v 0.125 0.625 0.375
v 0.25 0.625 0.375
v 0.375 0.625 0.375
v 0.5 0.625 0.375
v 0.625 0.625 0.375
v -0.25 0.625 0.25
v 0.625 0.625 0.25
v -0.25 0.625 0.125
v 0.625 0.625 0.125
v -0.25 0.625 -0
v 0.625 0.625 -0
v 0 0.625 -0.125
v 0.5 0.625 -0.125
v -0.125 0.625 -0.25
v 0 0.625 -0.25
v 0.5 0.625 -0.25
v 0.625 0.625 -0.25
v -0.125 0.625 -0.75
v 0 0.625 -0.75
v 0.5 0.625 -0.75
v 0.625 0.625 -0.75
v 0 0.625 -0.875
v 0.5 0.625 -0.875
v -0.25 0.625 -1
v 0.625 0.625 -1
v 0 0.875 -0.125
v 0.5 0.875 -0.125
v -0.125 0.875 -0.25
v 0 0.875 -0.25
v 0.5 0.875 -0.25
v 0.625 0.875 -0.25
v -0.125 0.875 -0.75
v 0 0.875 -0.75
v 0.5 0.875 -0.75
v 0.625 0.875 -0.75
v 0 0.875 -0.875
v 0.5 0.875 -0.875

# faces
f 3/3/1 2/3/1 1/3/1
f 4/3/1 2/3/1 3/3/1
f 5/3/1 2/3/1 4/3/1
f 6/3/1 2/3/1 5/3/1
f 7/3/1 2/3/1 6/3/1
f 8/3/1 2/3/1 7/3/1
f 9/1/1 8/1/1 7/1/1
f 9/3/1 2/3/1 8/3/1
f 10/3/1 2/3/1 9/3/1
f 11/1/1 10/1/1 9/1/1
f 11/3/1 2/3/1 10/3/1
f 12/3/1 2/3/1 11/3/1
f 13/1/1 4/1/1 3/1/1
f 14/3/1 5/3/1 4/3/1
f 14/1/1 4/1/1 13/1/1
f 15/2/1 6/2/1 5/2/1
f 15/3/1 5/3/1 14/3/1
f 16/3/1 7/3/1 6/3/1
f 16/2/1 6/2/1 15/2/1
f 17/1/1 9/1/1 7/1/1
f 17/3/1 7/3/1 16/3/1
f 17/1/1 11/1/1 9/1/1
f 17/1/1 12/1/1 11/1/1
f 18/1/1 12/1/1 17/1/1
f 21/3/1 20/3/1 19/3/1
f 22/3/1 20/3/1 21/3/1
f 23/1/1 22/1/1 21/1/1
f 24/1/1 22/1/1 23/1/1
f 30/1/1 25/1/1 24/1/1
f 31/3/1 26/3/1 25/3/1
f 31/1/1 25/1/1 30/1/1
f 32/2/1 27/2/1 26/2/1
f 32/3/1 26/3/1 31/3/1
f 33/3/1 28/3/1 27/3/1
f 33/2/1 27/2/1 32/2/1
f 34/1/1 29/1/1 28/1/1
f 34/3/1 28/3/1 33/3/1
f 35/1/1 29/1/1 34/1/1
f 38/3/1 37/3/1 36/3/1
f 39/3/1 37/3/1 38/3/1
f 40/1/1 39/1/1 38/1/1
f 41/1/1 39/1/1 40/1/1
f 43/1/1 42/1/1 41/1/1
f 44/1/1 42/1/1 43/1/1
f 47/3/1 46/3/1 45/3/1
f 48/3/1 46/3/1 47/3/1
f 53/3/1 50/3/1 49/3/1
f 54/3/1 50/3/1 53/3/1
f 55/3/1 52/3/1 51/3/1
f 56/3/1 52/3/1 55/3/1
f 57/3/2 58/3/2 61/3/2
f 61/3/2 58/3/2 62/3/2
f 59/3/2 60/3/2 63/3/2
f 63/3/2 60/3/2 64/3/2
f 65/3/2 66/3/2 67/3/2
f 67/3/2 66/3/2 68/3/2
f 68/3/2 66/3/2 69/3/2
f 69/3/2 66/3/2 70/3/2
f 70/3/2 66/3/2 71/3/2
f 71/3/2 66/3/2 72/3/2
f 71/1/2 72/1/2 73/1/2
f 72/3/2 66/3/2 73/3/2
f 73/3/2 66/3/2 74/3/2
f 67/1/2 68/1/2 75/1/2
f 75/1/2 68/1/2 76/1/2
f 76/1/2 68/1/2 77/1/2
f 68/3/2 69/3/2 78/3/2
f 77/1/2 68/1/2 78/1/2
f 69/2/2 70/2/2 79/2/2
f 78/3/2 69/3/2 79/3/2
f 70/3/2 71/3/2 80/3/2
f 79/2/2 70/2/2 80/2/2
f 71/1/2 73/1/2 81/1/2
f 80/3/2 71/3/2 81/3/2
f 73/1/2 74/1/2 81/1/2
f 81/1/2 74/1/2 82/1/2
f 82/1/2 74/1/2 83/1/2
f 83/1/2 74/1/2 84/1/2
f 82/3/2 83/3/2 85/3/2
f 85/3/2 83/3/2 86/3/2
f 90/3/3 88/3/3 87/3/3
f 90/1/3 89/1/3 88/1/3
f 91/1/3 89/1/3 90/1/3
f 92/3/3 90/3/3 87/3/3
f 92/3/3 91/3/3 90/3/3
f 93/3/3 91/3/3 92/3/3
f 94/3/3 92/3/3 87/3/3
f 94/2/3 93/2/3 92/2/3
f 95/2/3 93/2/3 94/2/3
f 96/3/3 94/3/3 87/3/3
f 96/3/3 95/3/3 94/3/3
f 97/3/3 95/3/3 96/3/3
f 98/3/3 96/3/3 87/3/3
f 99/1/3 97/1/3 96/1/3
f 99/3/3 96/3/3 98/3/3
f 100/1/3 97/1/3 99/1/3
f 104/3/3 102/3/3 101/3/3
f 105/1/3 103/1/3 102/1/3
f 105/3/3 102/3/3 104/3/3
f 106/1/3 103/1/3 105/1/3
f 108/1/3 107/1/3 106/1/3
f 109/1/3 107/1/3 108/1/3
f 110/3/3 109/3/3 108/3/3
f 111/3/3 109/3/3 110/3/3
f 112/2/3 111/2/3 110/2/3
f 113/2/3 111/2/3 112/2/3
f 114/3/3 113/3/3 112/3/3
f 115/3/3 113/3/3 114/3/3
f 116/1/3 115/1/3 114/1/3
f 117/1/3 115/1/3 116/1/3
f 121/3/3 119/3/3 118/3/3
f 122/1/3 120/1/3 119/1/3
f 122/3/3 119/3/3 121/3/3
f 123/1/3 120/1/3 122/1/3
f 125/1/3 124/1/3 123/1/3
f 126/1/3 124/1/3 125/1/3
f 129/3/3 128/3/3 127/3/3
f 130/3/3 128/3/3 129/3/3
f 133/3/3 132/3/3 131/3/3
f 134/3/3 132/3/3 133/3/3
f 137/3/3 136/3/3 135/3/3
f 138/3/3 136/3/3 137/3/3
f 139/3/4 140/3/4 141/3/4
f 141/3/4 140/3/4 142/3/4
f 143/3/4 144/3/4 145/3/4
f 145/3/4 144/3/4 146/3/4
f 147/3/4 148/3/4 149/3/4
f 149/3/4 148/3/4 150/3/4
f 152/1/4 153/1/4 154/1/4
f 151/3/4 152/3/4 156/3/4
f 154/1/4 155/1/4 157/1/4
f 156/3/4 152/3/4 157/3/4
f 152/1/4 154/1/4 157/1/4
f 157/1/4 155/1/4 158/1/4
f 162/3/5 160/3/5 159/3/5
f 164/3/5 162/3/5 161/3/5
f 165/3/5 164/3/5 163/3/5
f 166/3/5 160/3/5 162/3/5
f 166/3/5 164/3/5 165/3/5
f 166/3/5 162/3/5 164/3/5
f 167/1/6 168/1/6 174/1/6
f 168/3/6 169/3/6 175/3/6
f 174/1/6 168/1/6 175/1/6
f 169/2/6 170/2/6 176/2/6
f 175/3/6 169/3/6 176/3/6
f 170/3/6 171/3/6 177/3/6
f 176/2/6 170/2/6 177/2/6
f 171/1/6 172/1/6 178/1/6
f 177/3/6 171/3/6 178/3/6
f 178/1/6 172/1/6 179/1/6
f 173/1/6 174/1/6 181/1/6
f 181/1/6 174/1/6 182/1/6
f 180/1/6 181/1/6 183/1/6
f 183/1/6 181/1/6 184/1/6
f 183/3/6 184/3/6 185/3/6
f 185/3/6 184/3/6 186/3/6
f 185/2/6 186/2/6 187/2/6
f 187/2/6 186/2/6 188/2/6
f 187/3/6 188/3/6 189/3/6
f 189/3/6 188/3/6 190/3/6
f 189/1/6 190/1/6 191/1/6
f 191/1/6 190/1/6 192/1/6
f 193/1/6 194/1/6 200/1/6
f 199/1/6 200/1/6 201/1/6
f 194/3/6 195/3/6 202/3/6
f 201/1/6 200/1/6 202/1/6
f 200/1/6 194/1/6 202/1/6
f 195/2/6 196/2/6 203/2/6
f 202/3/6 195/3/6 203/3/6
f 196/3/6 197/3/6 204/3/6
f 203/2/6 196/2/6 204/2/6
f 197/1/6 198/1/6 205/1/6
f 204/3/6 197/3/6 205/3/6
f 205/1/6 198/1/6 206/1/6
f 203/3/6 204/3/6 207/3/6
f 201/3/6 202/3/6 207/3/6
f 205/3/6 206/3/6 207/3/6
f 204/3/6 205/3/6 207/3/6
f 202/3/6 203/3/6 207/3/6
f 207/3/6 206/3/6 208/3/6
f 207/2/6 208/2/6 209/2/6
f 209/2/6 208/2/6 210/2/6
f 209/3/6 210/3/6 211/3/6
f 211/3/6 210/3/6 212/3/6
f 211/1/6 212/1/6 213/1/6
f 213/1/6 212/1/6 214/1/6
f 211/1/6 213/1/6 215/1/6
f 215/1/6 213/1/6 216/1/6
f 214/1/6 212/1/6 217/1/6
f 217/1/6 212/1/6 218/1/6
f 211/1/6 215/1/6 219/1/6
f 219/1/6 220/1/6 223/1/6
f 221/1/6 222/1/6 224/1/6
f 211/1/6 219/1/6 225/1/6
f 223/1/6 224/1/6 225/1/6
f 219/1/6 223/1/6 225/1/6
f 224/1/6 222/1/6 226/1/6
f 225/1/6 224/1/6 226/1/6
f 227/3/6 228/3/6 230/3/6
f 230/3/6 228/3/6 231/3/6
f 229/3/6 230/3/6 233/3/6
f 230/1/6 231/1/6 234/1/6
f 233/3/6 230/3/6 234/3/6
f 231/3/6 232/3/6 235/3/6
f 234/1/6 231/1/6 235/1/6
f 235/3/6 232/3/6 236/3/6
f 234/3/6 235/3/6 237/3/6
f 237/3/6 235/3/6 238/3/6
