# MagicaVoxel @ ephtracy

# material
mtllib right_arm.mtl
usemtl palette

# normals
vn -1 0 0
vn 1 0 0
vn 0 0 1
vn 0 0 -1
vn 0 -1 0
vn 0 1 0

# texcoords
vt 0.0332031 0.5
vt 0.986328 0.5

# verts
v -0.75 0.125 0.375
v -0.75 0.125 -0.625
v -0.75 0.625 0.375
v -0.75 0.625 -0.625
v -0.625 0.625 0.375
v -0.625 0.625 -0.5
v -0.625 0.75 0.375
v -0.625 0.75 -0.5
v -0.375 0 0.5
v -0.375 0 -0.375
v -0.375 0.125 0.375
v -0.375 0.125 -0.375
v -0.375 0.5 0.5
v -0.375 0.5 0.375
v 0.125 0 -0
v 0.125 0 -0.375
v 0.125 0.125 -0
v 0.125 0.125 -0.375
v 0.25 0.125 -0.5
v 0.25 0.125 -0.625
v 0.25 0.625 0.375
v 0.25 0.625 -0.5
v 0.25 0.625 -0.625
v 0.25 0.75 0.375
v 0.25 0.75 -0.5
v 0.5 0 0.5
v 0.5 0 -0
v 0.5 0.125 0.25
v 0.5 0.125 -0
v 0.5 0.125 -0.375
v 0.5 0.125 -0.5
v 0.5 0.25 0.375
v 0.5 0.25 0.25
v 0.5 0.25 -0.375
v 0.5 0.25 -0.5
v 0.5 0.5 0.5
v 0.5 0.5 0.375
v 0.5 0.5 0.25
v 0.5 0.5 -0.375
v 0.5 0.5 -0.5
v 0.5 0.625 0.375
v 0.5 0.625 0.25
v 0.5 0.625 -0.375
v 0.5 0.625 -0.5
v 0.75 0.125 0.25
v 0.75 0.125 -0.375
v 0.75 0.25 0.375
v 0.75 0.25 0.25
v 0.75 0.25 -0.375
v 0.75 0.25 -0.5
v 0.75 0.5 0.375
v 0.75 0.5 0.25
v 0.75 0.5 -0.375
v 0.75 0.5 -0.5
v 0.75 0.625 0.25
v 0.75 0.625 -0.375
v -0.375 0 0.5
v -0.375 0.5 0.5
v 0.5 0 0.5
v 0.5 0.5 0.5
v -0.75 0.125 0.375
v -0.75 0.625 0.375
v -0.625 0.625 0.375
v -0.625 0.75 0.375
v -0.375 0.125 0.375
v -0.375 0.5 0.375
v 0.25 0.625 0.375
v 0.25 0.75 0.375
v 0.5 0.25 0.375
v 0.5 0.5 0.375
v 0.5 0.625 0.375
v 0.75 0.25 0.375
v 0.75 0.5 0.375
v 0.5 0.125 0.25
v 0.5 0.25 0.25
v 0.5 0.5 0.25
v 0.5 0.625 0.25
v 0.75 0.125 0.25
v 0.75 0.25 0.25
v 0.75 0.5 0.25
v 0.75 0.625 0.25
v 0.125 0 -0
v 0.125 0.125 -0
v 0.5 0 -0
v 0.5 0.125 -0
v -0.375 0 -0.375
v -0.375 0.125 -0.375
v 0.125 0 -0.375
v 0.125 0.125 -0.375
v 0.5 0.125 -0.375
v 0.5 0.25 -0.375
v 0.5 0.5 -0.375
v 0.5 0.625 -0.375
v 0.75 0.125 -0.375
v 0.75 0.25 -0.375
v 0.75 0.5 -0.375
v 0.75 0.625 -0.375
v -0.625 0.625 -0.5
v -0.625 0.75 -0.5
v 0.25 0.125 -0.5
v 0.25 0.625 -0.5
v 0.25 0.75 -0.5
v 0.5 0.125 -0.5
v 0.5 0.25 -0.5
v 0.5 0.5 -0.5
v 0.5 0.625 -0.5
v 0.75 0.25 -0.5
v 0.75 0.5 -0.5
v -0.75 0.125 -0.625
v -0.75 0.625 -0.625
v 0.25 0.125 -0.625
v 0.25 0.625 -0.625
v -0.375 0 0.5
v 0.5 0 0.5
v 0.125 0 -0
v 0.5 0 -0
v -0.375 0 -0.375
v 0.125 0 -0.375
v -0.75 0.125 0.375
v -0.375 0.125 0.375
v 0.5 0.125 0.25
v 0.75 0.125 0.25
v 0.125 0.125 -0
v 0.5 0.125 -0
v -0.375 0.125 -0.375
v 0.125 0.125 -0.375
v 0.5 0.125 -0.375
v 0.75 0.125 -0.375
v 0.25 0.125 -0.5
v 0.5 0.125 -0.5
v -0.75 0.125 -0.625
v 0.25 0.125 -0.625
v 0.5 0.25 0.375
v 0.75 0.25 0.375
v 0.5 0.25 0.25
v 0.75 0.25 0.25
v 0.5 0.25 -0.375
v 0.75 0.25 -0.375
v 0.5 0.25 -0.5
v 0.75 0.25 -0.5
v -0.375 0.5 0.5
v 0.5 0.5 0.5
v -0.375 0.5 0.375
v 0.5 0.5 0.375
v 0.75 0.5 0.375
v 0.5 0.5 0.25
v 0.75 0.5 0.25
v 0.5 0.5 -0.375
v 0.75 0.5 -0.375
v 0.5 0.5 -0.5
v 0.75 0.5 -0.5
v -0.75 0.625 0.375
v -0.625 0.625 0.375
v 0.25 0.625 0.375
v 0.5 0.625 0.375
v 0.5 0.625 0.25
v 0.75 0.625 0.25
v 0.5 0.625 -0.375
v 0.75 0.625 -0.375
v -0.625 0.625 -0.5
v 0.25 0.625 -0.5
v 0.5 0.625 -0.5
v -0.75 0.625 -0.625
v 0.25 0.625 -0.625
v -0.625 0.75 0.375
v 0.25 0.75 0.375
v -0.625 0.75 -0.5
v 0.25 0.75 -0.5

# faces
f 3/1/1 2/1/1 1/1/1
f 4/1/1 2/1/1 3/1/1
f 7/1/1 6/1/1 5/1/1
f 8/1/1 6/1/1 7/1/1
f 11/1/1 10/1/1 9/1/1
f 12/1/1 10/1/1 11/1/1
f 13/1/1 11/1/1 9/1/1
f 14/1/1 11/1/1 13/1/1
f 15/1/2 16/1/2 17/1/2
f 17/1/2 16/1/2 18/1/2
f 19/1/2 20/1/2 22/1/2
f 22/1/2 20/1/2 23/1/2
f 21/1/2 22/1/2 24/1/2
f 24/1/2 22/1/2 25/1/2
f 26/1/2 27/1/2 28/1/2
f 28/1/2 27/1/2 29/1/2
f 26/1/2 28/1/2 32/1/2
f 32/1/2 28/1/2 33/1/2
f 30/1/2 31/1/2 34/1/2
f 34/1/2 31/1/2 35/1/2
f 26/1/2 32/1/2 36/1/2
f 36/1/2 32/1/2 37/1/2
f 37/1/2 38/1/2 41/1/2
f 41/1/2 38/1/2 42/1/2
f 39/1/2 40/1/2 43/1/2
f 43/1/2 40/1/2 44/1/2
f 45/2/2 46/2/2 48/2/2
f 48/2/2 46/2/2 49/2/2
f 47/2/2 48/2/2 51/2/2
f 48/1/2 49/1/2 52/1/2
f 51/2/2 48/2/2 52/2/2
f 49/2/2 50/2/2 53/2/2
f 52/1/2 49/1/2 53/1/2
f 53/2/2 50/2/2 54/2/2
f 52/2/2 53/2/2 55/2/2
f 55/2/2 53/2/2 56/2/2
f 59/1/3 58/1/3 57/1/3
f 60/1/3 58/1/3 59/1/3
f 63/1/3 62/1/3 61/1/3
f 65/1/3 63/1/3 61/1/3
f 65/1/3 64/1/3 63/1/3
f 66/1/3 64/1/3 65/1/3
f 67/1/3 64/1/3 66/1/3
f 68/1/3 64/1/3 67/1/3
f 70/1/3 67/1/3 66/1/3
f 71/1/3 67/1/3 70/1/3
f 72/2/3 70/2/3 69/2/3
f 73/2/3 70/2/3 72/2/3
f 78/2/3 75/2/3 74/2/3
f 79/2/3 75/2/3 78/2/3
f 80/2/3 77/2/3 76/2/3
f 81/2/3 77/2/3 80/2/3
f 82/1/4 83/1/4 84/1/4
f 84/1/4 83/1/4 85/1/4
f 86/1/4 87/1/4 88/1/4
f 88/1/4 87/1/4 89/1/4
f 90/2/4 91/2/4 94/2/4
f 94/2/4 91/2/4 95/2/4
f 92/2/4 93/2/4 96/2/4
f 96/2/4 93/2/4 97/2/4
f 98/1/4 99/1/4 101/1/4
f 101/1/4 99/1/4 102/1/4
f 100/1/4 101/1/4 103/1/4
f 103/1/4 101/1/4 104/1/4
f 104/1/4 101/1/4 105/1/4
f 105/1/4 101/1/4 106/1/4
f 104/2/4 105/2/4 107/2/4
f 107/2/4 105/2/4 108/2/4
f 109/1/4 110/1/4 111/1/4
f 111/1/4 110/1/4 112/1/4
f 115/1/5 114/1/5 113/1/5
f 116/1/5 114/1/5 115/1/5
f 117/1/5 115/1/5 113/1/5
f 118/1/5 115/1/5 117/1/5
f 124/2/5 122/2/5 121/2/5
f 125/1/5 120/1/5 119/1/5
f 126/1/5 124/1/5 123/1/5
f 127/2/5 122/2/5 124/2/5
f 127/1/5 124/1/5 126/1/5
f 128/2/5 122/2/5 127/2/5
f 129/1/5 126/1/5 125/1/5
f 129/1/5 127/1/5 126/1/5
f 130/1/5 127/1/5 129/1/5
f 131/1/5 125/1/5 119/1/5
f 131/1/5 129/1/5 125/1/5
f 132/1/5 129/1/5 131/1/5
f 135/2/5 134/2/5 133/2/5
f 136/2/5 134/2/5 135/2/5
f 139/2/5 138/2/5 137/2/5
f 140/2/5 138/2/5 139/2/5
f 141/1/6 142/1/6 143/1/6
f 143/1/6 142/1/6 144/1/6
f 144/2/6 145/2/6 146/2/6
f 146/2/6 145/2/6 147/2/6
f 148/2/6 149/2/6 150/2/6
f 150/2/6 149/2/6 151/2/6
f 154/1/6 155/1/6 156/1/6
f 154/1/6 156/1/6 158/1/6
f 156/2/6 157/2/6 158/2/6
f 158/2/6 157/2/6 159/2/6
f 152/1/6 153/1/6 160/1/6
f 154/1/6 158/1/6 161/1/6
f 161/1/6 158/1/6 162/1/6
f 152/1/6 160/1/6 163/1/6
f 160/1/6 161/1/6 163/1/6
f 163/1/6 161/1/6 164/1/6
f 165/1/6 166/1/6 167/1/6
f 167/1/6 166/1/6 168/1/6
