# MagicaVoxel @ ephtracy

# material
mtllib block_stone.mtl
usemtl palette

# normals
vn -1 0 0
vn 1 0 0
vn 0 0 1
vn 0 0 -1
vn 0 -1 0
vn 0 1 0

# texcoords
vt 0.978516 0.5
vt 0.982422 0.5
vt 0.986328 0.5
vt 0.990234 0.5

# verts
v -0.5 0 0.5
v -0.5 0 0.375
v -0.5 0 0.125
v -0.5 0 -0
v -0.5 0 -0.125
v -0.5 0 -0.375
v -0.5 0 -0.5
v -0.5 0.125 0.5
v -0.5 0.125 0.375
v -0.5 0.125 0.25
v -0.5 0.125 0.125
v -0.5 0.125 -0
v -0.5 0.125 -0.125
v -0.5 0.125 -0.375
v -0.5 0.125 -0.5
v -0.5 0.25 0.5
v -0.5 0.25 0.375
v -0.5 0.25 0.25
v -0.5 0.25 0.125
v -0.5 0.25 -0
v -0.5 0.25 -0.125
v -0.5 0.25 -0.375
v -0.5 0.25 -0.5
v -0.5 0.375 0.25
v -0.5 0.375 0.125
v -0.5 0.375 -0
v -0.5 0.375 -0.125
v -0.5 0.375 -0.375
v -0.5 0.375 -0.5
v -0.5 0.5 0.375
v -0.5 0.5 0.25
v -0.5 0.5 0.125
v -0.5 0.5 -0
v -0.5 0.5 -0.125
v -0.5 0.5 -0.25
v -0.5 0.5 -0.375
v -0.5 0.5 -0.5
v -0.5 0.625 0.125
v -0.5 0.625 -0
v -0.5 0.625 -0.125
v -0.5 0.625 -0.25
v -0.5 0.75 0.5
v -0.5 0.75 0.375
v -0.5 0.75 0.125
v -0.5 0.75 -0
v -0.5 0.75 -0.125
v -0.5 0.75 -0.25
v -0.5 0.75 -0.375
v -0.5 0.875 0.5
v -0.5 0.875 0.375
v -0.5 0.875 0.25
v -0.5 0.875 0.125
v -0.5 0.875 -0
v -0.5 0.875 -0.125
v -0.5 0.875 -0.25
v -0.5 0.875 -0.375
v -0.5 0.875 -0.5
v -0.5 1 0.5
v -0.5 1 0.25
v -0.5 1 0.125
v -0.5 1 -0
v -0.5 1 -0.125
v -0.5 1 -0.375
v -0.5 1 -0.5
v 0.5 0 0.5
v 0.5 0 -0.125
v 0.5 0 -0.25
v 0.5 0 -0.375
v 0.5 0 -0.5
v 0.5 0.125 0.5
v 0.5 0.125 0.375
v 0.5 0.125 0.25
v 0.5 0.125 -0
v 0.5 0.125 -0.125
v 0.5 0.125 -0.25
v 0.5 0.125 -0.375
v 0.5 0.25 0.5
v 0.5 0.25 0.375
v 0.5 0.25 0.25
v 0.5 0.25 0.125
v 0.5 0.25 -0
v 0.5 0.25 -0.375
v 0.5 0.25 -0.5
v 0.5 0.375 0.5
v 0.5 0.375 0.375
v 0.5 0.375 0.25
v 0.5 0.375 0.125
v 0.5 0.375 -0
v 0.5 0.375 -0.125
v 0.5 0.375 -0.375
v 0.5 0.375 -0.5
v 0.5 0.5 0.375
v 0.5 0.5 0.25
v 0.5 0.5 0.125
v 0.5 0.5 -0
v 0.5 0.5 -0.125
v 0.5 0.5 -0.25
v 0.5 0.5 -0.375
v 0.5 0.5 -0.5
v 0.5 0.625 0.5
v 0.5 0.625 0.375
v 0.5 0.625 -0
v 0.5 0.625 -0.125
v 0.5 0.625 -0.25
v 0.5 0.625 -0.375
v 0.5 0.625 -0.5
v 0.5 0.75 0.5
v 0.5 0.75 0.375
v 0.5 0.75 0.25
v 0.5 0.75 0.125
v 0.5 0.75 -0
v 0.5 0.75 -0.125
v 0.5 0.75 -0.375
v 0.5 0.75 -0.5
v 0.5 0.875 0.375
v 0.5 0.875 0.25
v 0.5 0.875 0.125
v 0.5 0.875 -0
v 0.5 0.875 -0.125
v 0.5 0.875 -0.25
v 0.5 0.875 -0.375
v 0.5 1 0.5
v 0.5 1 0.375
v 0.5 1 0.25
v 0.5 1 0.125
v 0.5 1 -0.125
v 0.5 1 -0.25
v 0.5 1 -0.5
v -0.5 0 0.5
v -0.5 0.125 0.5
v -0.5 0.25 0.5
v -0.5 0.75 0.5
v -0.5 0.875 0.5
v -0.5 1 0.5
v -0.375 0.125 0.5
v -0.375 0.25 0.5
v -0.375 0.375 0.5
v -0.375 0.625 0.5
v -0.375 0.75 0.5
v -0.375 0.875 0.5
v -0.375 1 0.5
v -0.25 0 0.5
v -0.25 0.25 0.5
v -0.25 0.375 0.5
v -0.25 0.625 0.5
v -0.25 0.75 0.5
v -0.25 0.875 0.5
v -0.25 1 0.5
v -0.125 0 0.5
v -0.125 0.25 0.5
v -0.125 0.375 0.5
v -0.125 0.5 0.5
v -0.125 0.625 0.5
v -0.125 0.75 0.5
v -0.125 0.875 0.5
v -0.125 1 0.5
v 0 0 0.5
v 0 0.125 0.5
v 0 0.375 0.5
v 0 0.5 0.5
v 0 0.625 0.5
v 0 0.75 0.5
v 0.125 0 0.5
v 0.125 0.125 0.5
v 0.125 0.25 0.5
v 0.125 0.375 0.5
v 0.125 0.625 0.5
v 0.125 0.75 0.5
v 0.125 0.875 0.5
v 0.125 1 0.5
v 0.25 0 0.5
v 0.25 0.125 0.5
v 0.25 0.25 0.5
v 0.25 0.375 0.5
v 0.25 0.75 0.5
v 0.25 0.875 0.5
v 0.25 1 0.5
v 0.375 0.25 0.5
v 0.375 0.375 0.5
v 0.375 0.625 0.5
v 0.375 0.75 0.5
v 0.375 0.875 0.5
v 0.375 1 0.5
v 0.5 0 0.5
v 0.5 0.125 0.5
v 0.5 0.25 0.5
v 0.5 0.375 0.5
v 0.5 0.625 0.5
v 0.5 0.75 0.5
v 0.5 1 0.5
v -0.5 0 -0.5
v -0.5 0.125 -0.5
v -0.5 0.25 -0.5
v -0.5 0.375 -0.5
v -0.5 0.5 -0.5
v -0.5 0.875 -0.5
v -0.5 1 -0.5
v -0.375 0 -0.5
v -0.375 0.125 -0.5
v -0.375 0.25 -0.5
v -0.375 0.375 -0.5
v -0.375 0.5 -0.5
v -0.375 0.75 -0.5
v -0.375 0.875 -0.5
v -0.375 1 -0.5
v -0.25 0 -0.5
v -0.25 0.125 -0.5
v -0.25 0.25 -0.5
v -0.25 0.375 -0.5
v -0.25 0.5 -0.5
v -0.25 0.75 -0.5
v -0.25 0.875 -0.5
v -0.25 1 -0.5
v -0.125 0 -0.5
v -0.125 0.125 -0.5
v -0.125 0.25 -0.5
v -0.125 0.375 -0.5
v -0.125 0.5 -0.5
v -0.125 0.625 -0.5
v -0.125 0.75 -0.5
v -0.125 0.875 -0.5
v 0 0.125 -0.5
v 0 0.25 -0.5
v 0 0.375 -0.5
v 0 0.5 -0.5
v 0 0.625 -0.5
v 0 0.75 -0.5
v 0 0.875 -0.5
v 0 1 -0.5
v 0.125 0.25 -0.5
v 0.125 0.375 -0.5
v 0.125 0.5 -0.5
v 0.125 0.625 -0.5
v 0.125 0.75 -0.5
v 0.25 0 -0.5
v 0.25 0.125 -0.5
v 0.25 0.25 -0.5
v 0.25 0.375 -0.5
v 0.25 0.5 -0.5
v 0.25 0.625 -0.5
v 0.25 0.75 -0.5
v 0.25 0.875 -0.5
v 0.25 1 -0.5
v 0.375 0 -0.5
v 0.375 0.125 -0.5
v 0.375 0.25 -0.5
v 0.375 0.375 -0.5
v 0.375 0.5 -0.5
v 0.375 0.625 -0.5
v 0.375 0.75 -0.5
v 0.375 0.875 -0.5
v 0.5 0 -0.5
v 0.5 0.25 -0.5
v 0.5 0.375 -0.5
v 0.5 0.5 -0.5
v 0.5 0.625 -0.5
v 0.5 0.75 -0.5
v 0.5 1 -0.5
v -0.5 0 0.5
v -0.25 0 0.5
v -0.125 0 0.5
v 0 0 0.5
v 0.125 0 0.5
v 0.25 0 0.5
v 0.5 0 0.5
v -0.5 0 0.375
v -0.375 0 0.375
v -0.25 0 0.375
v -0.125 0 0.375
v 0 0 0.375
v 0.125 0 0.375
v 0.25 0 0.375
v 0.375 0 0.375
v -0.375 0 0.25
v -0.25 0 0.25
v -0.125 0 0.25
v 0 0 0.25
v 0.125 0 0.25
v 0.25 0 0.25
v -0.5 0 0.125
v -0.25 0 0.125
v -0.125 0 0.125
v 0.125 0 0.125
v 0.25 0 0.125
v 0.375 0 0.125
v -0.5 0 -0
v -0.375 0 -0
v -0.25 0 -0
v -0.125 0 -0
v 0 0 -0
v 0.125 0 -0
v 0.25 0 -0
v -0.5 0 -0.125
v -0.375 0 -0.125
v -0.25 0 -0.125
v -0.125 0 -0.125
v 0 0 -0.125
v 0.125 0 -0.125
v 0.25 0 -0.125
v 0.375 0 -0.125
v 0.5 0 -0.125
v -0.25 0 -0.25
v -0.125 0 -0.25
v 0 0 -0.25
v 0.125 0 -0.25
v 0.25 0 -0.25
v 0.375 0 -0.25
v 0.5 0 -0.25
v -0.5 0 -0.375
v -0.375 0 -0.375
v -0.25 0 -0.375
v -0.125 0 -0.375
v 0 0 -0.375
v 0.25 0 -0.375
v 0.375 0 -0.375
v 0.5 0 -0.375
v -0.5 0 -0.5
v -0.375 0 -0.5
v -0.25 0 -0.5
v -0.125 0 -0.5
v 0.25 0 -0.5
v 0.375 0 -0.5
v 0.5 0 -0.5
v -0.5 1 0.5
v -0.375 1 0.5
v -0.25 1 0.5
v -0.125 1 0.5
v 0.125 1 0.5
v 0.25 1 0.5
v 0.375 1 0.5
v 0.5 1 0.5
v 0 1 0.375
v 0.125 1 0.375
v 0.25 1 0.375
v 0.375 1 0.375
v 0.5 1 0.375
v -0.5 1 0.25
v -0.375 1 0.25
v -0.25 1 0.25
v -0.125 1 0.25
v 0 1 0.25
v 0.125 1 0.25
v 0.25 1 0.25
v 0.375 1 0.25
v 0.5 1 0.25
v -0.5 1 0.125
v -0.375 1 0.125
v -0.25 1 0.125
v 0 1 0.125
v 0.125 1 0.125
v 0.25 1 0.125
v 0.375 1 0.125
v 0.5 1 0.125
v -0.5 1 -0
v -0.375 1 -0
v -0.125 1 -0
v 0 1 -0
v 0.125 1 -0
v 0.25 1 -0
v -0.5 1 -0.125
v -0.375 1 -0.125
v -0.125 1 -0.125
v 0 1 -0.125
v 0.125 1 -0.125
v 0.25 1 -0.125
v 0.375 1 -0.125
v 0.5 1 -0.125
v -0.375 1 -0.25
v -0.25 1 -0.25
v 0 1 -0.25
v 0.125 1 -0.25
v 0.25 1 -0.25
v 0.375 1 -0.25
v 0.5 1 -0.25
v -0.5 1 -0.375
v -0.375 1 -0.375
v -0.25 1 -0.375
v 0 1 -0.375
v 0.125 1 -0.375
v 0.25 1 -0.375
v 0.375 1 -0.375
v -0.5 1 -0.5
v -0.375 1 -0.5
v -0.25 1 -0.5
v 0 1 -0.5
v 0.25 1 -0.5
v 0.5 1 -0.5

# faces
f 8/1/1 2/1/1 1/1/1
f 9/3/1 3/3/1 2/3/1
f 9/1/1 2/1/1 8/1/1
f 10/3/1 3/3/1 9/3/1
f 11/1/1 4/1/1 3/1/1
f 11/3/1 3/3/1 10/3/1
f 12/2/1 5/2/1 4/2/1
f 12/1/1 4/1/1 11/1/1
f 13/3/1 6/3/1 5/3/1
f 13/2/1 5/2/1 12/2/1
f 14/2/1 7/2/1 6/2/1
f 14/3/1 6/3/1 13/3/1
f 15/2/1 7/2/1 14/2/1
f 16/2/1 9/2/1 8/2/1
f 17/1/1 10/1/1 9/1/1
f 17/2/1 9/2/1 16/2/1
f 18/2/1 11/2/1 10/2/1
f 18/1/1 10/1/1 17/1/1
f 19/1/1 12/1/1 11/1/1
f 19/2/1 11/2/1 18/2/1
f 20/4/1 13/4/1 12/4/1
f 20/1/1 12/1/1 19/1/1
f 21/2/1 14/2/1 13/2/1
f 21/4/1 13/4/1 20/4/1
f 22/3/1 15/3/1 14/3/1
f 22/2/1 14/2/1 21/2/1
f 23/3/1 15/3/1 22/3/1
f 24/3/1 19/3/1 18/3/1
f 24/3/1 17/3/1 16/3/1
f 24/3/1 18/3/1 17/3/1
f 25/2/1 20/2/1 19/2/1
f 25/3/1 19/3/1 24/3/1
f 26/1/1 22/1/1 21/1/1
f 26/2/1 20/2/1 25/2/1
f 26/1/1 21/1/1 20/1/1
f 27/1/1 22/1/1 26/1/1
f 28/2/1 23/2/1 22/2/1
f 28/1/1 22/1/1 27/1/1
f 29/2/1 23/2/1 28/2/1
f 30/3/1 24/3/1 16/3/1
f 31/4/1 25/4/1 24/4/1
f 31/3/1 24/3/1 30/3/1
f 32/1/1 26/1/1 25/1/1
f 32/4/1 25/4/1 31/4/1
f 33/2/1 27/2/1 26/2/1
f 33/1/1 26/1/1 32/1/1
f 34/3/1 28/3/1 27/3/1
f 34/2/1 27/2/1 33/2/1
f 35/3/1 28/3/1 34/3/1
f 36/1/1 29/1/1 28/1/1
f 36/3/1 28/3/1 35/3/1
f 37/1/1 29/1/1 36/1/1
f 38/1/1 32/1/1 31/1/1
f 38/2/1 33/2/1 32/2/1
f 39/3/1 35/3/1 34/3/1
f 39/2/1 33/2/1 38/2/1
f 39/3/1 34/3/1 33/3/1
f 40/3/1 35/3/1 39/3/1
f 41/1/1 36/1/1 35/1/1
f 41/3/1 35/3/1 40/3/1
f 42/3/1 30/3/1 16/3/1
f 43/2/1 31/2/1 30/2/1
f 43/3/1 30/3/1 42/3/1
f 44/1/1 38/1/1 31/1/1
f 44/3/1 40/3/1 39/3/1
f 44/3/1 39/3/1 38/3/1
f 45/3/1 40/3/1 44/3/1
f 46/2/1 41/2/1 40/2/1
f 46/3/1 40/3/1 45/3/1
f 47/1/1 36/1/1 41/1/1
f 47/2/1 41/2/1 46/2/1
f 48/3/1 37/3/1 36/3/1
f 48/1/1 36/1/1 47/1/1
f 49/1/1 43/1/1 42/1/1
f 50/2/1 31/2/1 43/2/1
f 50/1/1 43/1/1 49/1/1
f 51/1/1 44/1/1 31/1/1
f 51/2/1 31/2/1 50/2/1
f 52/2/1 45/2/1 44/2/1
f 52/1/1 44/1/1 51/1/1
f 53/3/1 46/3/1 45/3/1
f 53/2/1 45/2/1 52/2/1
f 54/1/1 47/1/1 46/1/1
f 54/3/1 46/3/1 53/3/1
f 55/4/1 48/4/1 47/4/1
f 55/1/1 47/1/1 54/1/1
f 56/3/1 37/3/1 48/3/1
f 56/4/1 48/4/1 55/4/1
f 57/3/1 37/3/1 56/3/1
f 58/3/1 51/3/1 50/3/1
f 58/3/1 50/3/1 49/3/1
f 59/2/1 52/2/1 51/2/1
f 59/3/1 51/3/1 58/3/1
f 60/1/1 53/1/1 52/1/1
f 60/2/1 52/2/1 59/2/1
f 61/2/1 54/2/1 53/2/1
f 61/1/1 53/1/1 60/1/1
f 62/1/1 55/1/1 54/1/1
f 62/2/1 54/2/1 61/2/1
f 62/1/1 56/1/1 55/1/1
f 63/2/1 57/2/1 56/2/1
f 63/1/1 56/1/1 62/1/1
f 64/2/1 57/2/1 63/2/1
f 65/3/2 66/3/2 70/3/2
f 70/3/2 66/3/2 71/3/2
f 71/3/2 66/3/2 72/3/2
f 72/3/2 66/3/2 73/3/2
f 66/1/2 67/1/2 74/1/2
f 73/3/2 66/3/2 74/3/2
f 67/2/2 68/2/2 75/2/2
f 74/1/2 67/1/2 75/1/2
f 68/1/2 69/1/2 76/1/2
f 75/2/2 68/2/2 76/2/2
f 70/1/2 71/1/2 77/1/2
f 71/2/2 72/2/2 78/2/2
f 77/1/2 71/1/2 78/1/2
f 72/3/2 73/3/2 79/3/2
f 78/2/2 72/2/2 79/2/2
f 79/3/2 73/3/2 80/3/2
f 73/1/2 74/1/2 81/1/2
f 80/3/2 73/3/2 81/3/2
f 74/3/2 75/3/2 82/3/2
f 76/1/2 69/1/2 82/1/2
f 75/3/2 76/3/2 82/3/2
f 82/1/2 69/1/2 83/1/2
f 77/2/2 78/2/2 84/2/2
f 78/4/2 79/4/2 85/4/2
f 84/2/2 78/2/2 85/2/2
f 79/1/2 80/1/2 86/1/2
f 85/4/2 79/4/2 86/4/2
f 80/2/2 81/2/2 87/2/2
f 86/1/2 80/1/2 87/1/2
f 81/1/2 74/1/2 88/1/2
f 87/2/2 81/2/2 88/2/2
f 74/3/2 82/3/2 89/3/2
f 88/1/2 74/1/2 89/1/2
f 82/2/2 83/2/2 90/2/2
f 89/3/2 82/3/2 90/3/2
f 90/2/2 83/2/2 91/2/2
f 84/1/2 85/1/2 92/1/2
f 85/2/2 86/2/2 92/2/2
f 86/3/2 87/3/2 93/3/2
f 92/2/2 86/2/2 93/2/2
f 87/1/2 88/1/2 94/1/2
f 93/3/2 87/3/2 94/3/2
f 88/2/2 89/2/2 95/2/2
f 94/1/2 88/1/2 95/1/2
f 90/3/2 91/3/2 96/3/2
f 95/2/2 89/2/2 96/2/2
f 89/3/2 90/3/2 96/3/2
f 96/3/2 91/3/2 97/3/2
f 97/3/2 91/3/2 98/3/2
f 98/3/2 91/3/2 99/3/2
f 84/1/2 92/1/2 100/1/2
f 92/3/2 93/3/2 101/3/2
f 100/1/2 92/1/2 101/1/2
f 93/3/2 94/3/2 101/3/2
f 94/2/2 95/2/2 102/2/2
f 95/1/2 96/1/2 102/1/2
f 96/2/2 97/2/2 103/2/2
f 102/1/2 96/1/2 103/1/2
f 97/3/2 98/3/2 104/3/2
f 103/2/2 97/2/2 104/2/2
f 98/2/2 99/2/2 105/2/2
f 104/3/2 98/3/2 105/3/2
f 105/2/2 99/2/2 106/2/2
f 100/2/2 101/2/2 107/2/2
f 101/3/2 94/3/2 108/3/2
f 107/2/2 101/2/2 108/2/2
f 108/3/2 94/3/2 109/3/2
f 94/2/2 102/2/2 110/2/2
f 109/3/2 94/3/2 110/3/2
f 102/2/2 103/2/2 110/2/2
f 110/2/2 103/2/2 111/2/2
f 103/1/2 104/1/2 112/1/2
f 111/2/2 103/2/2 112/2/2
f 104/1/2 105/1/2 112/1/2
f 105/1/2 106/1/2 112/1/2
f 112/1/2 106/1/2 113/1/2
f 113/1/2 106/1/2 114/1/2
f 108/3/2 109/3/2 115/3/2
f 107/3/2 108/3/2 115/3/2
f 109/2/2 110/2/2 116/2/2
f 115/3/2 109/3/2 116/3/2
f 110/1/2 111/1/2 117/1/2
f 116/2/2 110/2/2 117/2/2
f 111/4/2 112/4/2 118/4/2
f 117/1/2 111/1/2 118/1/2
f 112/3/2 113/3/2 119/3/2
f 118/4/2 112/4/2 119/4/2
f 119/3/2 113/3/2 120/3/2
f 113/2/2 114/2/2 121/2/2
f 120/3/2 113/3/2 121/3/2
f 107/3/2 115/3/2 122/3/2
f 115/2/2 116/2/2 123/2/2
f 122/3/2 115/3/2 123/3/2
f 116/1/2 117/1/2 124/1/2
f 123/2/2 116/2/2 124/2/2
f 117/3/2 118/3/2 125/3/2
f 124/1/2 117/1/2 125/1/2
f 118/3/2 119/3/2 125/3/2
f 119/1/2 120/1/2 126/1/2
f 125/3/2 119/3/2 126/3/2
f 120/2/2 121/2/2 127/2/2
f 126/1/2 120/1/2 127/1/2
f 121/2/2 114/2/2 128/2/2
f 127/2/2 121/2/2 128/2/2
f 135/1/3 130/1/3 129/1/3
f 135/2/3 131/2/3 130/2/3
f 136/3/3 132/3/3 131/3/3
f 136/2/3 131/2/3 135/2/3
f 137/3/3 132/3/3 136/3/3
f 138/3/3 132/3/3 137/3/3
f 139/1/3 133/1/3 132/1/3
f 139/3/3 132/3/3 138/3/3
f 140/3/3 134/3/3 133/3/3
f 140/1/3 133/1/3 139/1/3
f 141/3/3 134/3/3 140/3/3
f 142/1/3 135/1/3 129/1/3
f 142/1/3 136/1/3 135/1/3
f 143/3/3 137/3/3 136/3/3
f 143/1/3 136/1/3 142/1/3
f 144/2/3 138/2/3 137/2/3
f 144/3/3 137/3/3 143/3/3
f 145/1/3 139/1/3 138/1/3
f 145/2/3 138/2/3 144/2/3
f 146/2/3 141/2/3 140/2/3
f 146/1/3 139/1/3 145/1/3
f 146/2/3 140/2/3 139/2/3
f 147/2/3 141/2/3 146/2/3
f 148/2/3 141/2/3 147/2/3
f 149/2/3 143/2/3 142/2/3
f 150/4/3 144/4/3 143/4/3
f 150/2/3 143/2/3 149/2/3
f 151/1/3 145/1/3 144/1/3
f 151/4/3 144/4/3 150/4/3
f 152/1/3 145/1/3 151/1/3
f 153/2/3 146/2/3 145/2/3
f 153/1/3 145/1/3 152/1/3
f 154/4/3 147/4/3 146/4/3
f 154/2/3 146/2/3 153/2/3
f 155/1/3 148/1/3 147/1/3
f 155/4/3 147/4/3 154/4/3
f 156/1/3 148/1/3 155/1/3
f 157/3/3 150/3/3 149/3/3
f 158/3/3 150/3/3 157/3/3
f 159/2/3 152/2/3 151/2/3
f 159/1/3 151/1/3 150/1/3
f 160/3/3 153/3/3 152/3/3
f 160/2/3 152/2/3 159/2/3
f 160/3/3 154/3/3 153/3/3
f 161/3/3 154/3/3 160/3/3
f 162/1/3 155/1/3 154/1/3
f 162/3/3 154/3/3 161/3/3
f 163/2/3 158/2/3 157/2/3
f 164/3/3 150/3/3 158/3/3
f 164/2/3 158/2/3 163/2/3
f 165/1/3 159/1/3 150/1/3
f 165/3/3 150/3/3 164/3/3
f 166/3/3 161/3/3 160/3/3
f 166/1/3 159/1/3 165/1/3
f 166/3/3 160/3/3 159/3/3
f 167/2/3 162/2/3 161/2/3
f 167/3/3 161/3/3 166/3/3
f 168/1/3 155/1/3 162/1/3
f 168/2/3 162/2/3 167/2/3
f 169/2/3 156/2/3 155/2/3
f 169/1/3 155/1/3 168/1/3
f 170/2/3 156/2/3 169/2/3
f 171/1/3 164/1/3 163/1/3
f 172/4/3 165/4/3 164/4/3
f 172/1/3 164/1/3 171/1/3
f 173/2/3 166/2/3 165/2/3
f 173/4/3 165/4/3 172/4/3
f 174/3/3 167/3/3 166/3/3
f 174/2/3 166/2/3 173/2/3
f 175/1/3 168/1/3 167/1/3
f 175/2/3 169/2/3 168/2/3
f 176/1/3 170/1/3 169/1/3
f 176/2/3 169/2/3 175/2/3
f 177/1/3 170/1/3 176/1/3
f 178/1/3 173/1/3 172/1/3
f 178/3/3 174/3/3 173/3/3
f 179/3/3 167/3/3 174/3/3
f 179/3/3 174/3/3 178/3/3
f 180/1/3 175/1/3 167/1/3
f 180/3/3 167/3/3 179/3/3
f 181/3/3 176/3/3 175/3/3
f 181/1/3 175/1/3 180/1/3
f 182/2/3 177/2/3 176/2/3
f 182/3/3 176/3/3 181/3/3
f 183/2/3 177/2/3 182/2/3
f 184/3/3 172/3/3 171/3/3
f 185/1/3 178/1/3 172/1/3
f 185/3/3 172/3/3 184/3/3
f 186/2/3 179/2/3 178/2/3
f 186/1/3 178/1/3 185/1/3
f 187/1/3 180/1/3 179/1/3
f 187/2/3 179/2/3 186/2/3
f 188/2/3 181/2/3 180/2/3
f 188/1/3 180/1/3 187/1/3
f 189/3/3 182/3/3 181/3/3
f 189/2/3 181/2/3 188/2/3
f 189/3/3 183/3/3 182/3/3
f 190/3/3 183/3/3 189/3/3
f 191/2/4 192/2/4 198/2/4
f 192/3/4 193/3/4 199/3/4
f 198/2/4 192/2/4 199/2/4
f 193/2/4 194/2/4 200/2/4
f 199/3/4 193/3/4 200/3/4
f 194/1/4 195/1/4 201/1/4
f 200/2/4 194/2/4 201/2/4
f 195/3/4 196/3/4 202/3/4
f 201/1/4 195/1/4 202/1/4
f 202/3/4 196/3/4 203/3/4
f 196/2/4 197/2/4 204/2/4
f 203/3/4 196/3/4 204/3/4
f 204/2/4 197/2/4 205/2/4
f 198/1/4 199/1/4 206/1/4
f 199/3/4 200/3/4 207/3/4
f 206/1/4 199/1/4 207/1/4
f 200/1/4 201/1/4 208/1/4
f 207/3/4 200/3/4 208/3/4
f 201/2/4 202/2/4 209/2/4
f 208/1/4 201/1/4 209/1/4
f 202/3/4 203/3/4 210/3/4
f 209/2/4 202/2/4 210/2/4
f 203/2/4 204/2/4 211/2/4
f 210/3/4 203/3/4 211/3/4
f 204/1/4 205/1/4 212/1/4
f 211/2/4 204/2/4 212/2/4
f 212/1/4 205/1/4 213/1/4
f 206/2/4 207/2/4 214/2/4
f 207/1/4 208/1/4 215/1/4
f 214/2/4 207/2/4 215/2/4
f 208/2/4 209/2/4 216/2/4
f 215/1/4 208/1/4 216/1/4
f 209/3/4 210/3/4 217/3/4
f 216/2/4 209/2/4 217/2/4
f 210/3/4 211/3/4 217/3/4
f 217/3/4 211/3/4 218/3/4
f 218/3/4 211/3/4 219/3/4
f 211/1/4 212/1/4 220/1/4
f 219/3/4 211/3/4 220/3/4
f 212/2/4 213/2/4 221/2/4
f 220/1/4 212/1/4 221/1/4
f 214/3/4 215/3/4 222/3/4
f 215/4/4 216/4/4 222/4/4
f 216/1/4 217/1/4 223/1/4
f 222/4/4 216/4/4 223/4/4
f 217/1/4 218/1/4 223/1/4
f 223/1/4 218/1/4 224/1/4
f 218/2/4 219/2/4 225/2/4
f 224/1/4 218/1/4 225/1/4
f 219/1/4 220/1/4 226/1/4
f 225/2/4 219/2/4 226/2/4
f 220/4/4 221/4/4 227/4/4
f 226/1/4 220/1/4 227/1/4
f 221/2/4 213/2/4 228/2/4
f 227/4/4 221/4/4 228/4/4
f 228/2/4 213/2/4 229/2/4
f 223/3/4 224/3/4 230/3/4
f 222/3/4 223/3/4 230/3/4
f 224/2/4 225/2/4 231/2/4
f 230/3/4 224/3/4 231/3/4
f 225/1/4 226/1/4 232/1/4
f 231/2/4 225/2/4 232/2/4
f 226/2/4 227/2/4 233/2/4
f 232/1/4 226/1/4 233/1/4
f 227/3/4 228/3/4 234/3/4
f 233/2/4 227/2/4 234/2/4
f 222/3/4 230/3/4 235/3/4
f 214/3/4 222/3/4 235/3/4
f 235/3/4 230/3/4 236/3/4
f 230/2/4 231/2/4 237/2/4
f 236/3/4 230/3/4 237/3/4
f 231/1/4 232/1/4 238/1/4
f 237/2/4 231/2/4 238/2/4
f 232/4/4 233/4/4 239/4/4
f 238/1/4 232/1/4 239/1/4
f 233/3/4 234/3/4 240/3/4
f 239/4/4 233/4/4 240/4/4
f 234/3/4 228/3/4 241/3/4
f 240/3/4 234/3/4 241/3/4
f 228/1/4 229/1/4 242/1/4
f 241/3/4 228/3/4 242/3/4
f 242/1/4 229/1/4 243/1/4
f 235/2/4 236/2/4 244/2/4
f 236/3/4 237/3/4 245/3/4
f 244/2/4 236/2/4 245/2/4
f 237/1/4 238/1/4 246/1/4
f 245/3/4 237/3/4 246/3/4
f 238/2/4 239/2/4 247/2/4
f 246/1/4 238/1/4 247/1/4
f 239/1/4 240/1/4 248/1/4
f 247/2/4 239/2/4 248/2/4
f 240/2/4 241/2/4 249/2/4
f 248/1/4 240/1/4 249/1/4
f 241/3/4 242/3/4 250/3/4
f 249/2/4 241/2/4 250/2/4
f 242/2/4 243/2/4 251/2/4
f 250/3/4 242/3/4 251/3/4
f 245/1/4 246/1/4 252/1/4
f 244/1/4 245/1/4 252/1/4
f 246/2/4 247/2/4 253/2/4
f 252/1/4 246/1/4 253/1/4
f 247/3/4 248/3/4 254/3/4
f 253/2/4 247/2/4 254/2/4
f 248/2/4 249/2/4 255/2/4
f 254/3/4 248/3/4 255/3/4
f 249/1/4 250/1/4 256/1/4
f 255/2/4 249/2/4 256/2/4
f 250/2/4 251/2/4 257/2/4
f 256/1/4 250/1/4 257/1/4
f 251/2/4 243/2/4 258/2/4
f 257/2/4 251/2/4 258/2/4
f 266/1/5 260/1/5 259/1/5
f 267/1/5 260/1/5 266/1/5
f 268/2/5 261/2/5 260/2/5
f 268/1/5 260/1/5 267/1/5
f 269/3/5 262/3/5 261/3/5
f 269/2/5 261/2/5 268/2/5
f 270/2/5 263/2/5 262/2/5
f 270/3/5 262/3/5 269/3/5
f 271/1/5 264/1/5 263/1/5
f 271/2/5 263/2/5 270/2/5
f 272/3/5 265/3/5 264/3/5
f 272/1/5 264/1/5 271/1/5
f 273/3/5 265/3/5 272/3/5
f 274/3/5 267/3/5 266/3/5
f 274/2/5 268/2/5 267/2/5
f 275/1/5 269/1/5 268/1/5
f 275/2/5 268/2/5 274/2/5
f 276/2/5 270/2/5 269/2/5
f 276/1/5 269/1/5 275/1/5
f 277/3/5 271/3/5 270/3/5
f 277/2/5 270/2/5 276/2/5
f 278/4/5 272/4/5 271/4/5
f 278/3/5 271/3/5 277/3/5
f 279/1/5 273/1/5 272/1/5
f 279/4/5 272/4/5 278/4/5
f 280/3/5 276/3/5 275/3/5
f 280/3/5 274/3/5 266/3/5
f 280/3/5 275/3/5 274/3/5
f 281/3/5 276/3/5 280/3/5
f 282/1/5 277/1/5 276/1/5
f 282/3/5 276/3/5 281/3/5
f 283/3/5 278/3/5 277/3/5
f 283/2/5 279/2/5 278/2/5
f 284/1/5 273/1/5 279/1/5
f 284/2/5 279/2/5 283/2/5
f 285/3/5 265/3/5 273/3/5
f 285/1/5 273/1/5 284/1/5
f 286/1/5 281/1/5 280/1/5
f 287/1/5 281/1/5 286/1/5
f 288/2/5 282/2/5 281/2/5
f 288/1/5 281/1/5 287/1/5
f 289/1/5 277/1/5 282/1/5
f 289/2/5 282/2/5 288/2/5
f 290/3/5 283/3/5 277/3/5
f 290/1/5 277/1/5 289/1/5
f 291/1/5 284/1/5 283/1/5
f 291/3/5 283/3/5 290/3/5
f 292/3/5 285/3/5 284/3/5
f 292/1/5 284/1/5 291/1/5
f 293/2/5 287/2/5 286/2/5
f 294/3/5 288/3/5 287/3/5
f 294/2/5 287/2/5 293/2/5
f 295/1/5 289/1/5 288/1/5
f 295/3/5 288/3/5 294/3/5
f 296/4/5 290/4/5 289/4/5
f 296/1/5 289/1/5 295/1/5
f 297/1/5 291/1/5 290/1/5
f 297/4/5 290/4/5 296/4/5
f 298/2/5 292/2/5 291/2/5
f 298/1/5 291/1/5 297/1/5
f 299/3/5 285/3/5 292/3/5
f 299/2/5 292/2/5 298/2/5
f 300/3/5 265/3/5 285/3/5
f 300/3/5 285/3/5 299/3/5
f 301/3/5 265/3/5 300/3/5
f 302/3/5 294/3/5 293/3/5
f 302/3/5 295/3/5 294/3/5
f 302/2/5 296/2/5 295/2/5
f 303/1/5 298/1/5 297/1/5
f 303/2/5 296/2/5 302/2/5
f 303/1/5 297/1/5 296/1/5
f 304/1/5 298/1/5 303/1/5
f 305/4/5 299/4/5 298/4/5
f 305/1/5 298/1/5 304/1/5
f 306/2/5 300/2/5 299/2/5
f 306/4/5 299/4/5 305/4/5
f 307/1/5 301/1/5 300/1/5
f 307/2/5 300/2/5 306/2/5
f 308/1/5 301/1/5 307/1/5
f 309/3/5 302/3/5 293/3/5
f 310/3/5 302/3/5 309/3/5
f 311/1/5 303/1/5 302/1/5
f 311/3/5 302/3/5 310/3/5
f 312/2/5 304/2/5 303/2/5
f 312/1/5 303/1/5 311/1/5
f 313/3/5 306/3/5 305/3/5
f 313/2/5 304/2/5 312/2/5
f 313/3/5 305/3/5 304/3/5
f 314/1/5 307/1/5 306/1/5
f 314/3/5 306/3/5 313/3/5
f 315/2/5 308/2/5 307/2/5
f 315/1/5 307/1/5 314/1/5
f 316/2/5 308/2/5 315/2/5
f 317/2/5 310/2/5 309/2/5
f 318/1/5 311/1/5 310/1/5
f 318/2/5 310/2/5 317/2/5
f 319/2/5 312/2/5 311/2/5
f 319/1/5 311/1/5 318/1/5
f 320/3/5 313/3/5 312/3/5
f 320/2/5 312/2/5 319/2/5
f 320/3/5 314/3/5 313/3/5
f 321/2/5 315/2/5 314/2/5
f 321/3/5 314/3/5 320/3/5
f 322/1/5 316/1/5 315/1/5
f 322/2/5 315/2/5 321/2/5
f 323/1/5 316/1/5 322/1/5
f 327/2/6 328/2/6 332/2/6
f 328/1/6 329/1/6 333/1/6
f 332/2/6 328/2/6 333/2/6
f 329/2/6 330/2/6 334/2/6
f 333/1/6 329/1/6 334/1/6
f 330/3/6 331/3/6 335/3/6
f 334/2/6 330/2/6 335/2/6
f 335/3/6 331/3/6 336/3/6
f 324/3/6 325/3/6 337/3/6
f 325/2/6 326/2/6 338/2/6
f 337/3/6 325/3/6 338/3/6
f 326/1/6 327/1/6 339/1/6
f 338/2/6 326/2/6 339/2/6
f 327/2/6 332/2/6 340/2/6
f 339/1/6 327/1/6 340/1/6
f 332/3/6 333/3/6 341/3/6
f 340/2/6 332/2/6 341/2/6
f 333/2/6 334/2/6 342/2/6
f 341/3/6 333/3/6 342/3/6
f 334/1/6 335/1/6 343/1/6
f 342/2/6 334/2/6 343/2/6
f 335/2/6 336/2/6 344/2/6
f 343/1/6 335/1/6 344/1/6
f 344/2/6 336/2/6 345/2/6
f 337/2/6 338/2/6 346/2/6
f 338/3/6 339/3/6 347/3/6
f 346/2/6 338/2/6 347/2/6
f 339/2/6 340/2/6 348/2/6
f 347/3/6 339/3/6 348/3/6
f 340/1/6 341/1/6 349/1/6
f 341/3/6 342/3/6 349/3/6
f 342/1/6 343/1/6 350/1/6
f 349/3/6 342/3/6 350/3/6
f 343/2/6 344/2/6 351/2/6
f 350/1/6 343/1/6 351/1/6
f 344/1/6 345/1/6 352/1/6
f 351/2/6 344/2/6 352/2/6
f 352/1/6 345/1/6 353/1/6
f 346/1/6 347/1/6 354/1/6
f 347/2/6 348/2/6 355/2/6
f 354/1/6 347/1/6 355/1/6
f 348/2/6 340/2/6 356/2/6
f 355/2/6 348/2/6 356/2/6
f 340/1/6 349/1/6 356/1/6
f 349/4/6 350/4/6 357/4/6
f 356/1/6 349/1/6 357/1/6
f 352/3/6 353/3/6 358/3/6
f 357/4/6 350/4/6 358/4/6
f 350/3/6 351/3/6 358/3/6
f 351/3/6 352/3/6 358/3/6
f 358/3/6 353/3/6 359/3/6
f 354/2/6 355/2/6 360/2/6
f 355/1/6 356/1/6 361/1/6
f 360/2/6 355/2/6 361/2/6
f 356/2/6 357/2/6 362/2/6
f 361/1/6 356/1/6 362/1/6
f 357/1/6 358/1/6 363/1/6
f 362/2/6 357/2/6 363/2/6
f 358/2/6 359/2/6 364/2/6
f 363/1/6 358/1/6 364/1/6
f 359/3/6 353/3/6 365/3/6
f 364/2/6 359/2/6 365/2/6
f 365/3/6 353/3/6 366/3/6
f 366/3/6 353/3/6 367/3/6
f 360/1/6 361/1/6 368/1/6
f 361/3/6 362/3/6 368/3/6
f 362/3/6 363/3/6 368/3/6
f 368/3/6 363/3/6 369/3/6
f 363/2/6 364/2/6 370/2/6
f 369/3/6 363/3/6 370/3/6
f 364/1/6 365/1/6 371/1/6
f 370/2/6 364/2/6 371/2/6
f 365/2/6 366/2/6 372/2/6
f 371/1/6 365/1/6 372/1/6
f 366/1/6 367/1/6 373/1/6
f 372/2/6 366/2/6 373/2/6
f 373/1/6 367/1/6 374/1/6
f 360/1/6 368/1/6 375/1/6
f 368/2/6 369/2/6 376/2/6
f 375/1/6 368/1/6 376/1/6
f 370/3/6 371/3/6 377/3/6
f 376/2/6 369/2/6 377/2/6
f 369/3/6 370/3/6 377/3/6
f 377/3/6 371/3/6 378/3/6
f 371/2/6 372/2/6 379/2/6
f 378/3/6 371/3/6 379/3/6
f 372/1/6 373/1/6 380/1/6
f 379/2/6 372/2/6 380/2/6
f 373/2/6 374/2/6 381/2/6
f 380/1/6 373/1/6 381/1/6
f 375/2/6 376/2/6 382/2/6
f 376/1/6 377/1/6 383/1/6
f 382/2/6 376/2/6 383/2/6
f 377/2/6 378/2/6 384/2/6
f 383/1/6 377/1/6 384/1/6
f 379/1/6 380/1/6 385/1/6
f 384/2/6 378/2/6 385/2/6
f 378/1/6 379/1/6 385/1/6
f 380/2/6 381/2/6 386/2/6
f 385/1/6 380/1/6 386/1/6
f 381/2/6 374/2/6 387/2/6
f 386/2/6 381/2/6 387/2/6
