# MagicaVoxel @ ephtracy

# material
mtllib sword.mtl
usemtl palette

# normals
vn -1 0 0
vn 1 0 0
vn 0 0 1
vn 0 0 -1
vn 0 -1 0
vn 0 1 0

# texcoords
vt 0.701172 0.5
vt 0.970703 0.5
vt 0.974609 0.5
vt 0.986328 0.5
vt 0.994141 0.5

# verts
v -0.4375 0.625 0.0625
v -0.4375 0.625 -0.0625
v -0.4375 0.75 0.0625
v -0.4375 0.75 -0.0625
v -0.3125 0.625 0.1875
v -0.3125 0.625 0.0625
v -0.3125 0.625 -0.0625
v -0.3125 0.625 -0.1875
v -0.3125 0.75 0.1875
v -0.3125 0.75 0.0625
v -0.3125 0.75 -0.0625
v -0.3125 0.75 -0.1875
v -0.1875 0.75 0.0625
v -0.1875 0.75 -0.0625
v -0.1875 1.125 0.0625
v -0.1875 1.125 -0.0625
v -0.1875 3.625 0.0625
v -0.1875 3.625 -0.0625
v -0.0625 0 0.0625
v -0.0625 0 -0.0625
v -0.0625 0.125 0.0625
v -0.0625 0.125 -0.0625
v -0.0625 0.625 0.0625
v -0.0625 0.625 -0.0625
v -0.0625 3.625 0.0625
v -0.0625 3.625 -0.0625
v -0.0625 3.75 0.0625
v -0.0625 3.75 -0.0625
v 0.0625 0 0.0625
v 0.0625 0 -0.0625
v 0.0625 0.125 0.0625
v 0.0625 0.125 -0.0625
v 0.0625 0.625 0.0625
v 0.0625 0.625 -0.0625
v 0.0625 3.625 0.0625
v 0.0625 3.625 -0.0625
v 0.0625 3.75 0.0625
v 0.0625 3.75 -0.0625
v 0.1875 0.75 0.0625
v 0.1875 0.75 -0.0625
v 0.1875 1.125 0.0625
v 0.1875 1.125 -0.0625
v 0.1875 3.625 0.0625
v 0.1875 3.625 -0.0625
v 0.3125 0.625 0.1875
v 0.3125 0.625 0.0625
v 0.3125 0.625 -0.0625
v 0.3125 0.625 -0.1875
v 0.3125 0.75 0.1875
v 0.3125 0.75 0.0625
v 0.3125 0.75 -0.0625
v 0.3125 0.75 -0.1875
v 0.4375 0.625 0.0625
v 0.4375 0.625 -0.0625
v 0.4375 0.75 0.0625
v 0.4375 0.75 -0.0625
v -0.3125 0.625 0.1875
v -0.3125 0.75 0.1875
v 0.3125 0.625 0.1875
v 0.3125 0.75 0.1875
v -0.4375 0.625 0.0625
v -0.4375 0.75 0.0625
v -0.3125 0.625 0.0625
v -0.3125 0.75 0.0625
v -0.1875 0.75 0.0625
v -0.1875 1.125 0.0625
v -0.1875 3.625 0.0625
v -0.0625 0 0.0625
v -0.0625 0.125 0.0625
v -0.0625 0.625 0.0625
v -0.0625 0.75 0.0625
v -0.0625 1.125 0.0625
v -0.0625 3.5 0.0625
v -0.0625 3.625 0.0625
v -0.0625 3.75 0.0625
v 0.0625 0 0.0625
v 0.0625 0.125 0.0625
v 0.0625 0.625 0.0625
v 0.0625 0.75 0.0625
v 0.0625 1.125 0.0625
v 0.0625 3.5 0.0625
v 0.0625 3.625 0.0625
v 0.0625 3.75 0.0625
v 0.1875 0.75 0.0625
v 0.1875 1.125 0.0625
v 0.1875 3.625 0.0625
v 0.3125 0.625 0.0625
v 0.3125 0.75 0.0625
v 0.4375 0.625 0.0625
v 0.4375 0.75 0.0625
v -0.4375 0.625 -0.0625
v -0.4375 0.75 -0.0625
v -0.3125 0.625 -0.0625
v -0.3125 0.75 -0.0625
v -0.1875 0.75 -0.0625
v -0.1875 1.125 -0.0625
v -0.1875 3.625 -0.0625
v -0.0625 0 -0.0625
v -0.0625 0.125 -0.0625
v -0.0625 0.625 -0.0625
v -0.0625 0.75 -0.0625
v -0.0625 1.125 -0.0625
v -0.0625 3.5 -0.0625
v -0.0625 3.625 -0.0625
v -0.0625 3.75 -0.0625
v 0.0625 0 -0.0625
v 0.0625 0.125 -0.0625
v 0.0625 0.625 -0.0625
v 0.0625 0.75 -0.0625
v 0.0625 1.125 -0.0625
v 0.0625 3.5 -0.0625
v 0.0625 3.625 -0.0625
v 0.0625 3.75 -0.0625
v 0.1875 0.75 -0.0625
v 0.1875 1.125 -0.0625
v 0.1875 3.625 -0.0625
v 0.3125 0.625 -0.0625
v 0.3125 0.75 -0.0625
v 0.4375 0.625 -0.0625
v 0.4375 0.75 -0.0625
v -0.3125 0.625 -0.1875
v -0.3125 0.75 -0.1875
v 0.3125 0.625 -0.1875
v 0.3125 0.75 -0.1875
v -0.0625 0 0.0625
v 0.0625 0 0.0625
v -0.0625 0 -0.0625
v 0.0625 0 -0.0625
v -0.3125 0.625 0.1875
v 0.3125 0.625 0.1875
v -0.4375 0.625 0.0625
v -0.3125 0.625 0.0625
v -0.0625 0.625 0.0625
v 0.0625 0.625 0.0625
v 0.3125 0.625 0.0625
v 0.4375 0.625 0.0625
v -0.4375 0.625 -0.0625
v -0.3125 0.625 -0.0625
v -0.0625 0.625 -0.0625
v 0.0625 0.625 -0.0625
v 0.3125 0.625 -0.0625
v 0.4375 0.625 -0.0625
v -0.3125 0.625 -0.1875
v 0.3125 0.625 -0.1875
v -0.3125 0.75 0.1875
v 0.3125 0.75 0.1875
v -0.4375 0.75 0.0625
v -0.3125 0.75 0.0625
v -0.1875 0.75 0.0625
v -0.0625 0.75 0.0625
v 0.0625 0.75 0.0625
v 0.1875 0.75 0.0625
v 0.3125 0.75 0.0625
v 0.4375 0.75 0.0625
v -0.4375 0.75 -0.0625
v -0.3125 0.75 -0.0625
v -0.1875 0.75 -0.0625
v -0.0625 0.75 -0.0625
v 0.0625 0.75 -0.0625
v 0.1875 0.75 -0.0625
v 0.3125 0.75 -0.0625
v 0.4375 0.75 -0.0625
v -0.3125 0.75 -0.1875
v 0.3125 0.75 -0.1875
v -0.1875 3.625 0.0625
v -0.0625 3.625 0.0625
v 0.0625 3.625 0.0625
v 0.1875 3.625 0.0625
v -0.1875 3.625 -0.0625
v -0.0625 3.625 -0.0625
v 0.0625 3.625 -0.0625
v 0.1875 3.625 -0.0625
v -0.0625 3.75 0.0625
v 0.0625 3.75 0.0625
v -0.0625 3.75 -0.0625
v 0.0625 3.75 -0.0625

# faces
f 3/5/1 2/5/1 1/5/1
f 4/5/1 2/5/1 3/5/1
f 9/5/1 6/5/1 5/5/1
f 10/5/1 6/5/1 9/5/1
f 11/5/1 8/5/1 7/5/1
f 12/5/1 8/5/1 11/5/1
f 15/5/1 14/5/1 13/5/1
f 16/5/1 14/5/1 15/5/1
f 17/2/1 16/2/1 15/2/1
f 18/2/1 16/2/1 17/2/1
f 21/4/1 20/4/1 19/4/1
f 22/4/1 20/4/1 21/4/1
f 23/1/1 22/1/1 21/1/1
f 24/1/1 22/1/1 23/1/1
f 27/2/1 26/2/1 25/2/1
f 28/2/1 26/2/1 27/2/1
f 29/4/2 30/4/2 31/4/2
f 31/4/2 30/4/2 32/4/2
f 31/1/2 32/1/2 33/1/2
f 33/1/2 32/1/2 34/1/2
f 35/2/2 36/2/2 37/2/2
f 37/2/2 36/2/2 38/2/2
f 39/5/2 40/5/2 41/5/2
f 41/5/2 40/5/2 42/5/2
f 41/2/2 42/2/2 43/2/2
f 43/2/2 42/2/2 44/2/2
f 45/5/2 46/5/2 49/5/2
f 49/5/2 46/5/2 50/5/2
f 47/5/2 48/5/2 51/5/2
f 51/5/2 48/5/2 52/5/2
f 53/5/2 54/5/2 55/5/2
f 55/5/2 54/5/2 56/5/2
f 59/5/3 58/5/3 57/5/3
f 60/5/3 58/5/3 59/5/3
f 63/5/3 62/5/3 61/5/3
f 64/5/3 62/5/3 63/5/3
f 71/5/3 66/5/3 65/5/3
f 72/2/3 67/2/3 66/2/3
f 72/5/3 66/5/3 71/5/3
f 73/2/3 67/2/3 72/2/3
f 74/2/3 67/2/3 73/2/3
f 76/4/3 69/4/3 68/4/3
f 77/1/3 70/1/3 69/1/3
f 77/4/3 69/4/3 76/4/3
f 78/1/3 70/1/3 77/1/3
f 79/3/3 72/3/3 71/3/3
f 79/3/3 73/3/3 72/3/3
f 80/3/3 73/3/3 79/3/3
f 81/2/3 75/2/3 74/2/3
f 81/3/3 73/3/3 80/3/3
f 81/2/3 74/2/3 73/2/3
f 82/2/3 75/2/3 81/2/3
f 83/2/3 75/2/3 82/2/3
f 84/5/3 80/5/3 79/5/3
f 85/2/3 82/2/3 81/2/3
f 85/5/3 80/5/3 84/5/3
f 85/2/3 81/2/3 80/2/3
f 86/2/3 82/2/3 85/2/3
f 89/5/3 88/5/3 87/5/3
f 90/5/3 88/5/3 89/5/3
f 91/5/4 92/5/4 93/5/4
f 93/5/4 92/5/4 94/5/4
f 95/5/4 96/5/4 101/5/4
f 96/2/4 97/2/4 102/2/4
f 101/5/4 96/5/4 102/5/4
f 102/2/4 97/2/4 103/2/4
f 103/2/4 97/2/4 104/2/4
f 98/4/4 99/4/4 106/4/4
f 99/1/4 100/1/4 107/1/4
f 106/4/4 99/4/4 107/4/4
f 107/1/4 100/1/4 108/1/4
f 101/3/4 102/3/4 109/3/4
f 102/3/4 103/3/4 109/3/4
f 109/3/4 103/3/4 110/3/4
f 104/2/4 105/2/4 111/2/4
f 110/3/4 103/3/4 111/3/4
f 103/2/4 104/2/4 111/2/4
f 111/2/4 105/2/4 112/2/4
f 112/2/4 105/2/4 113/2/4
f 109/5/4 110/5/4 114/5/4
f 111/2/4 112/2/4 115/2/4
f 114/5/4 110/5/4 115/5/4
f 110/2/4 111/2/4 115/2/4
f 115/2/4 112/2/4 116/2/4
f 117/5/4 118/5/4 119/5/4
f 119/5/4 118/5/4 120/5/4
f 121/5/4 122/5/4 123/5/4
f 123/5/4 122/5/4 124/5/4
f 127/4/5 126/4/5 125/4/5
f 128/4/5 126/4/5 127/4/5
f 132/5/5 130/5/5 129/5/5
f 133/5/5 130/5/5 132/5/5
f 134/5/5 130/5/5 133/5/5
f 135/5/5 130/5/5 134/5/5
f 137/5/5 132/5/5 131/5/5
f 137/5/5 133/5/5 132/5/5
f 138/5/5 133/5/5 137/5/5
f 139/5/5 133/5/5 138/5/5
f 140/5/5 136/5/5 135/5/5
f 140/5/5 135/5/5 134/5/5
f 141/5/5 136/5/5 140/5/5
f 142/5/5 136/5/5 141/5/5
f 143/5/5 139/5/5 138/5/5
f 143/5/5 141/5/5 140/5/5
f 143/5/5 140/5/5 139/5/5
f 144/5/5 141/5/5 143/5/5
f 145/5/6 146/5/6 148/5/6
f 148/5/6 146/5/6 149/5/6
f 149/5/6 146/5/6 150/5/6
f 150/5/6 146/5/6 151/5/6
f 151/5/6 146/5/6 152/5/6
f 152/5/6 146/5/6 153/5/6
f 147/5/6 148/5/6 155/5/6
f 148/5/6 149/5/6 155/5/6
f 155/5/6 149/5/6 156/5/6
f 156/5/6 149/5/6 157/5/6
f 153/5/6 154/5/6 160/5/6
f 152/5/6 153/5/6 160/5/6
f 160/5/6 154/5/6 161/5/6
f 161/5/6 154/5/6 162/5/6
f 158/5/6 159/5/6 163/5/6
f 157/5/6 158/5/6 163/5/6
f 160/5/6 161/5/6 163/5/6
f 159/5/6 160/5/6 163/5/6
f 156/5/6 157/5/6 163/5/6
f 163/5/6 161/5/6 164/5/6
f 165/2/6 166/2/6 169/2/6
f 169/2/6 166/2/6 170/2/6
f 167/2/6 168/2/6 171/2/6
f 171/2/6 168/2/6 172/2/6
f 173/2/6 174/2/6 175/2/6
f 175/2/6 174/2/6 176/2/6
