# MagicaVoxel @ ephtracy

# material
mtllib skull.mtl
usemtl palette

# normals
vn -1 0 0
vn 1 0 0
vn 0 0 1
vn 0 0 -1
vn 0 -1 0
vn 0 1 0

# texcoords
vt 0.958984 0.5
vt 0.962891 0.5
vt 0.994141 0.5

# verts
v -0.375 0.25 0.25
v -0.375 0.25 0.125
v -0.375 0.25 -0.25
v -0.375 0.375 0.5
v -0.375 0.375 0.25
v -0.375 0.375 0.125
v -0.375 0.375 -0.25
v -0.375 0.75 0.5
v -0.375 0.75 -0.25
v -0.25 0 0.375
v -0.25 0 -0
v -0.25 0.125 0.5
v -0.25 0.125 0.375
v -0.25 0.125 0.125
v -0.25 0.25 0.25
v -0.25 0.25 0.125
v -0.25 0.25 -0
v -0.25 0.25 -0.25
v -0.25 0.25 -0.375
v -0.25 0.375 0.5
v -0.25 0.375 0.25
v -0.25 0.375 -0.25
v -0.25 0.375 -0.375
v -0.25 0.75 0.375
v -0.25 0.75 -0.125
v -0.25 0.75 -0.25
v -0.25 0.75 -0.375
v -0.25 0.875 0.375
v -0.25 0.875 -0.125
v -0.125 0.375 0.5
v -0.125 0.375 0.375
v -0.125 0.625 0.5
v -0.125 0.625 0.375
v -0.125 0.75 -0.125
v -0.125 0.75 -0.25
v -0.125 0.875 -0.125
v -0.125 0.875 -0.25
v 0.25 0.375 0.5
v 0.25 0.375 0.375
v 0.25 0.625 0.5
v 0.25 0.625 0.375
v -0.25 0.375 0.5
v -0.25 0.375 0.375
v -0.25 0.625 0.5
v -0.25 0.625 0.375
v 0.125 0.375 0.5
v 0.125 0.375 0.375
v 0.125 0.625 0.5
v 0.125 0.625 0.375
v 0.125 0.75 -0.125
v 0.125 0.75 -0.25
v 0.125 0.875 -0.125
v 0.125 0.875 -0.25
v 0.25 0 0.375
v 0.25 0 -0
v 0.25 0.125 0.5
v 0.25 0.125 0.375
v 0.25 0.125 0.125
v 0.25 0.25 0.5
v 0.25 0.25 0.375
v 0.25 0.25 0.25
v 0.25 0.25 0.125
v 0.25 0.25 -0
v 0.25 0.25 -0.25
v 0.25 0.25 -0.375
v 0.25 0.375 0.5
v 0.25 0.375 0.375
v 0.25 0.375 0.25
v 0.25 0.375 -0.25
v 0.25 0.375 -0.375
v 0.25 0.75 0.375
v 0.25 0.75 0.25
v 0.25 0.75 -0.125
v 0.25 0.75 -0.25
v 0.25 0.75 -0.375
v 0.25 0.875 0.375
v 0.25 0.875 0.25
v 0.25 0.875 -0.125
v 0.375 0.25 0.25
v 0.375 0.25 0.125
v 0.375 0.25 -0.25
v 0.375 0.375 0.5
v 0.375 0.375 0.25
v 0.375 0.375 0.125
v 0.375 0.375 -0.25
v 0.375 0.625 0.375
v 0.375 0.625 0.25
v 0.375 0.75 0.5
v 0.375 0.75 0.375
v 0.375 0.75 0.25
v 0.375 0.75 -0.25
v -0.375 0.375 0.5
v -0.375 0.75 0.5
v -0.25 0.125 0.5
v -0.25 0.375 0.5
v -0.25 0.625 0.5
v -0.125 0.125 0.5
v -0.125 0.25 0.5
v -0.125 0.375 0.5
v -0.125 0.625 0.5
v 0.125 0.125 0.5
v 0.125 0.25 0.5
v 0.125 0.375 0.5
v 0.125 0.625 0.5
v 0.25 0.125 0.5
v 0.25 0.25 0.5
v 0.25 0.375 0.5
v 0.25 0.625 0.5
v 0.375 0.375 0.5
v 0.375 0.75 0.5
v -0.25 0 0.375
v -0.25 0.125 0.375
v -0.25 0.375 0.375
v -0.25 0.625 0.375
v -0.25 0.75 0.375
v -0.25 0.875 0.375
v -0.125 0.125 0.375
v -0.125 0.375 0.375
v -0.125 0.625 0.375
v 0.125 0.125 0.375
v 0.125 0.375 0.375
v 0.125 0.625 0.375
v 0.125 0.75 0.375
v 0.125 0.875 0.375
v 0.25 0 0.375
v 0.25 0.125 0.375
v 0.25 0.375 0.375
v 0.25 0.625 0.375
v 0.25 0.75 0.375
v 0.25 0.875 0.375
v -0.375 0.25 0.25
v -0.375 0.375 0.25
v -0.25 0.25 0.25
v -0.25 0.375 0.25
v 0.25 0.25 0.25
v 0.25 0.375 0.25
v 0.375 0.25 0.25
v 0.375 0.375 0.25
v -0.25 0 -0
v -0.25 0.25 -0
v 0.25 0 -0
v 0.25 0.25 -0
v -0.25 0.75 -0.125
v -0.25 0.875 -0.125
v -0.125 0.75 -0.125
v -0.125 0.875 -0.125
v 0.125 0.75 -0.125
v 0.125 0.875 -0.125
v 0.25 0.75 -0.125
v 0.25 0.875 -0.125
v -0.375 0.25 -0.25
v -0.375 0.375 -0.25
v -0.375 0.75 -0.25
v -0.25 0.25 -0.25
v -0.25 0.375 -0.25
v -0.25 0.75 -0.25
v -0.125 0.75 -0.25
v -0.125 0.875 -0.25
v 0.125 0.75 -0.25
v 0.125 0.875 -0.25
v 0.25 0.25 -0.25
v 0.25 0.375 -0.25
v 0.25 0.75 -0.25
v 0.375 0.25 -0.25
v 0.375 0.375 -0.25
v 0.375 0.75 -0.25
v -0.25 0.25 -0.375
v -0.25 0.375 -0.375
v -0.25 0.75 -0.375
v 0.25 0.25 -0.375
v 0.25 0.375 -0.375
v 0.25 0.75 -0.375
v -0.25 0 0.375
v 0.25 0 0.375
v -0.125 0 0.25
v 0.125 0 0.25
v -0.125 0 0.125
v 0.125 0 0.125
v -0.25 0 -0
v 0.25 0 -0
v -0.25 0.125 0.5
v -0.125 0.125 0.5
v 0.125 0.125 0.5
v 0.25 0.125 0.5
v -0.25 0.125 0.375
v -0.125 0.125 0.375
v 0.125 0.125 0.375
v 0.25 0.125 0.375
v -0.375 0.25 0.25
v -0.25 0.25 0.25
v 0.25 0.25 0.25
v 0.375 0.25 0.25
v -0.375 0.25 0.125
v -0.25 0.25 0.125
v 0.25 0.25 0.125
v 0.375 0.25 0.125
v -0.25 0.25 -0
v 0.25 0.25 -0
v -0.375 0.25 -0.25
v -0.25 0.25 -0.25
v 0.25 0.25 -0.25
v 0.375 0.25 -0.25
v -0.25 0.25 -0.375
v 0.25 0.25 -0.375
v -0.375 0.375 0.5
v -0.25 0.375 0.5
v 0.25 0.375 0.5
v 0.375 0.375 0.5
v 0.25 0.375 0.375
v -0.375 0.375 0.25
v -0.25 0.375 0.25
v 0.25 0.375 0.25
v 0.375 0.375 0.25
v -0.25 0.625 0.5
v -0.125 0.625 0.5
v 0.125 0.625 0.5
v 0.25 0.625 0.5
v -0.25 0.625 0.375
v -0.125 0.625 0.375
v 0.125 0.625 0.375
v 0.25 0.625 0.375
v -0.25 0.375 0.5
v -0.125 0.375 0.5
v 0.125 0.375 0.5
v 0.25 0.375 0.5
v -0.25 0.375 0.375
v -0.125 0.375 0.375
v 0.125 0.375 0.375
v 0.25 0.375 0.375
v -0.375 0.75 0.5
v 0.375 0.75 0.5
v -0.25 0.75 0.375
v 0.125 0.75 0.375
v 0.25 0.75 0.375
v 0.375 0.75 0.375
v 0.25 0.75 0.25
v 0.375 0.75 0.25
v -0.25 0.75 -0.125
v -0.125 0.75 -0.125
v 0.125 0.75 -0.125
v 0.25 0.75 -0.125
v -0.375 0.75 -0.25
v -0.25 0.75 -0.25
v -0.125 0.75 -0.25
v 0.125 0.75 -0.25
v 0.25 0.75 -0.25
v 0.375 0.75 -0.25
v -0.25 0.75 -0.375
v 0.25 0.75 -0.375
v -0.25 0.875 0.375
v 0.125 0.875 0.375
v 0.25 0.875 0.375
v 0 0.875 0.25
v 0.125 0.875 0.25
v 0.25 0.875 0.25
v 0 0.875 0.125
v 0.125 0.875 0.125
v -0.25 0.875 -0.125
v -0.125 0.875 -0.125
v 0.125 0.875 -0.125
v 0.25 0.875 -0.125
v -0.125 0.875 -0.25
v 0.125 0.875 -0.25

# faces
f 5/1/1 2/1/1 1/1/1
f 6/2/1 3/2/1 2/2/1
f 6/1/1 2/1/1 5/1/1
f 7/2/1 3/2/1 6/2/1
f 8/1/1 5/1/1 4/1/1
f 8/1/1 6/1/1 5/1/1
f 8/1/1 7/1/1 6/1/1
f 9/1/1 7/1/1 8/1/1
f 13/2/1 11/2/1 10/2/1
f 14/2/1 11/2/1 13/2/1
f 15/1/1 13/1/1 12/1/1
f 15/1/1 14/1/1 13/1/1
f 16/2/1 11/2/1 14/2/1
f 16/1/1 14/1/1 15/1/1
f 17/2/1 11/2/1 16/2/1
f 20/1/1 15/1/1 12/1/1
f 21/1/1 15/1/1 20/1/1
f 22/2/1 19/2/1 18/2/1
f 23/2/1 19/2/1 22/2/1
f 26/1/1 23/1/1 22/1/1
f 27/1/1 23/1/1 26/1/1
f 28/1/1 25/1/1 24/1/1
f 29/1/1 25/1/1 28/1/1
f 32/1/1 31/1/1 30/1/1
f 33/1/1 31/1/1 32/1/1
f 36/1/1 35/1/1 34/1/1
f 37/1/1 35/1/1 36/1/1
f 40/1/1 39/1/1 38/1/1
f 41/1/1 39/1/1 40/1/1
f 42/1/2 43/1/2 44/1/2
f 44/1/2 43/1/2 45/1/2
f 46/1/2 47/1/2 48/1/2
f 48/1/2 47/1/2 49/1/2
f 50/1/2 51/1/2 52/1/2
f 52/1/2 51/1/2 53/1/2
f 54/2/2 55/2/2 57/2/2
f 57/2/2 55/2/2 58/2/2
f 56/1/2 57/1/2 59/1/2
f 57/1/2 58/1/2 59/1/2
f 59/1/2 58/1/2 60/1/2
f 60/1/2 58/1/2 61/1/2
f 58/2/2 55/2/2 62/2/2
f 61/1/2 58/1/2 62/1/2
f 62/2/2 55/2/2 63/2/2
f 59/2/2 60/2/2 66/2/2
f 60/1/2 61/1/2 67/1/2
f 66/2/2 60/2/2 67/2/2
f 67/1/2 61/1/2 68/1/2
f 64/2/2 65/2/2 69/2/2
f 69/2/2 65/2/2 70/2/2
f 69/1/2 70/1/2 74/1/2
f 74/1/2 70/1/2 75/1/2
f 71/2/2 72/2/2 76/2/2
f 72/1/2 73/1/2 77/1/2
f 76/2/2 72/2/2 77/2/2
f 77/1/2 73/1/2 78/1/2
f 79/1/2 80/1/2 83/1/2
f 80/2/2 81/2/2 84/2/2
f 83/1/2 80/1/2 84/1/2
f 84/2/2 81/2/2 85/2/2
f 82/1/2 83/1/2 86/1/2
f 83/1/2 84/1/2 86/1/2
f 84/1/2 85/1/2 86/1/2
f 86/1/2 85/1/2 87/1/2
f 82/1/2 86/1/2 88/1/2
f 86/2/2 87/2/2 89/2/2
f 88/1/2 86/1/2 89/1/2
f 87/1/2 85/1/2 90/1/2
f 89/2/2 87/2/2 90/2/2
f 90/1/2 85/1/2 91/1/2
f 95/1/3 93/1/3 92/1/3
f 96/1/3 93/1/3 95/1/3
f 97/1/3 95/1/3 94/1/3
f 98/1/3 95/1/3 97/1/3
f 99/1/3 95/1/3 98/1/3
f 100/1/3 93/1/3 96/1/3
f 101/2/3 98/2/3 97/2/3
f 102/1/3 99/1/3 98/1/3
f 102/2/3 98/2/3 101/2/3
f 102/1/3 100/1/3 99/1/3
f 103/1/3 100/1/3 102/1/3
f 104/1/3 93/1/3 100/1/3
f 104/1/3 100/1/3 103/1/3
f 105/1/3 102/1/3 101/1/3
f 106/2/3 103/2/3 102/2/3
f 106/1/3 102/1/3 105/1/3
f 107/2/3 103/2/3 106/2/3
f 108/1/3 93/1/3 104/1/3
f 109/1/3 108/1/3 107/1/3
f 110/1/3 93/1/3 108/1/3
f 110/1/3 108/1/3 109/1/3
f 117/2/3 112/2/3 111/2/3
f 118/3/3 114/3/3 113/3/3
f 119/3/3 114/3/3 118/3/3
f 120/2/3 117/2/3 111/2/3
f 123/1/3 116/1/3 115/1/3
f 124/1/3 116/1/3 123/1/3
f 125/2/3 120/2/3 111/2/3
f 126/2/3 120/2/3 125/2/3
f 127/3/3 122/3/3 121/3/3
f 128/3/3 122/3/3 127/3/3
f 129/2/3 124/2/3 123/2/3
f 130/2/3 124/2/3 129/2/3
f 133/1/3 132/1/3 131/1/3
f 134/1/3 132/1/3 133/1/3
f 137/1/3 136/1/3 135/1/3
f 138/1/3 136/1/3 137/1/3
f 139/2/4 140/2/4 141/2/4
f 141/2/4 140/2/4 142/2/4
f 143/1/4 144/1/4 145/1/4
f 145/1/4 144/1/4 146/1/4
f 147/1/4 148/1/4 149/1/4
f 149/1/4 148/1/4 150/1/4
f 151/2/4 152/2/4 154/2/4
f 152/1/4 153/1/4 155/1/4
f 154/2/4 152/2/4 155/2/4
f 155/1/4 153/1/4 156/1/4
f 157/1/4 158/1/4 159/1/4
f 159/1/4 158/1/4 160/1/4
f 161/2/4 162/2/4 164/2/4
f 162/1/4 163/1/4 165/1/4
f 164/2/4 162/2/4 165/2/4
f 165/1/4 163/1/4 166/1/4
f 167/2/4 168/2/4 170/2/4
f 168/1/4 169/1/4 171/1/4
f 170/2/4 168/2/4 171/2/4
f 171/1/4 169/1/4 172/1/4
f 175/2/5 174/2/5 173/2/5
f 176/2/5 174/2/5 175/2/5
f 177/2/5 175/2/5 173/2/5
f 177/1/5 176/1/5 175/1/5
f 178/2/5 174/2/5 176/2/5
f 178/1/5 176/1/5 177/1/5
f 179/2/5 177/2/5 173/2/5
f 179/2/5 178/2/5 177/2/5
f 180/2/5 174/2/5 178/2/5
f 180/2/5 178/2/5 179/2/5
f 185/1/5 182/1/5 181/1/5
f 186/2/5 183/2/5 182/2/5
f 186/1/5 182/1/5 185/1/5
f 187/1/5 184/1/5 183/1/5
f 187/2/5 183/2/5 186/2/5
f 188/1/5 184/1/5 187/1/5
f 193/1/5 190/1/5 189/1/5
f 194/1/5 190/1/5 193/1/5
f 195/1/5 192/1/5 191/1/5
f 196/1/5 192/1/5 195/1/5
f 197/2/5 194/2/5 193/2/5
f 198/2/5 196/2/5 195/2/5
f 199/2/5 197/2/5 193/2/5
f 199/2/5 198/2/5 197/2/5
f 200/2/5 198/2/5 199/2/5
f 201/2/5 196/2/5 198/2/5
f 201/2/5 198/2/5 200/2/5
f 202/2/5 196/2/5 201/2/5
f 203/2/5 201/2/5 200/2/5
f 204/2/5 201/2/5 203/2/5
f 209/1/5 208/1/5 207/1/5
f 210/1/5 206/1/5 205/1/5
f 211/1/5 206/1/5 210/1/5
f 212/1/5 208/1/5 209/1/5
f 213/1/5 208/1/5 212/1/5
f 218/1/5 215/1/5 214/1/5
f 219/1/5 215/1/5 218/1/5
f 220/1/5 217/1/5 216/1/5
f 221/1/5 217/1/5 220/1/5
f 222/1/6 223/1/6 226/1/6
f 226/1/6 223/1/6 227/1/6
f 224/2/6 225/2/6 228/2/6
f 228/2/6 225/2/6 229/2/6
f 230/1/6 231/1/6 232/1/6
f 232/1/6 231/1/6 233/1/6
f 233/1/6 231/1/6 234/1/6
f 234/1/6 231/1/6 235/1/6
f 234/2/6 235/2/6 236/2/6
f 236/2/6 235/2/6 237/2/6
f 230/1/6 232/1/6 238/1/6
f 236/1/6 237/1/6 241/1/6
f 238/1/6 239/1/6 242/1/6
f 230/1/6 238/1/6 242/1/6
f 242/1/6 239/1/6 243/1/6
f 243/1/6 239/1/6 244/1/6
f 240/1/6 241/1/6 245/1/6
f 241/1/6 237/1/6 246/1/6
f 245/1/6 241/1/6 246/1/6
f 246/1/6 237/1/6 247/1/6
f 243/1/6 244/1/6 248/1/6
f 244/1/6 245/1/6 248/1/6
f 245/1/6 246/1/6 248/1/6
f 248/1/6 246/1/6 249/1/6
f 250/1/6 251/1/6 253/1/6
f 251/2/6 252/2/6 254/2/6
f 253/1/6 251/1/6 254/1/6
f 254/2/6 252/2/6 255/2/6
f 250/1/6 253/1/6 256/1/6
f 253/2/6 254/2/6 256/2/6
f 254/1/6 255/1/6 257/1/6
f 256/2/6 254/2/6 257/2/6
f 250/1/6 256/1/6 258/1/6
f 256/1/6 257/1/6 258/1/6
f 258/1/6 257/1/6 259/1/6
f 257/1/6 255/1/6 260/1/6
f 259/1/6 257/1/6 260/1/6
f 260/1/6 255/1/6 261/1/6
f 259/1/6 260/1/6 262/1/6
f 262/1/6 260/1/6 263/1/6
